<svg width="36" height="9" viewBox="0 0 36 9" fill="none" xmlns="http://www.w3.org/2000/svg">
<path d="M2.448 9C3.792 9 4.224 8.16 4.224 7.152V6.156H5.544V7.152C5.544 8.16 5.976 9 7.32 9C8.436 9 9.156 8.292 9.156 7.188C9.156 6.024 8.46 5.34 7.092 5.34H6.384V4.02H7.092C8.46 4.02 9.156 3.336 9.156 2.172C9.156 1.068 8.436 0.36 7.32 0.36C5.976 0.36 5.544 1.2 5.544 2.208V3.204H4.224V2.208C4.224 1.2 3.792 0.36 2.448 0.36C1.332 0.36 0.612 1.068 0.612 2.172C0.612 3.336 1.308 4.02 2.676 4.02H3.384V5.34H2.676C1.308 5.34 0.612 6.024 0.612 7.188C0.612 8.292 1.332 9 2.448 9ZM6.384 2.184C6.384 1.572 6.696 1.188 7.32 1.188C7.884 1.188 8.304 1.464 8.304 2.172C8.304 2.856 7.944 3.204 7.092 3.204H6.384V2.184ZM2.676 3.204C1.824 3.204 1.464 2.856 1.464 2.172C1.464 1.464 1.884 1.188 2.448 1.188C3.072 1.188 3.384 1.572 3.384 2.184V3.204H2.676ZM4.224 5.34V4.02H5.544V5.34H4.224ZM2.448 8.172C1.884 8.172 1.464 7.896 1.464 7.188C1.464 6.504 1.824 6.156 2.676 6.156H3.384V7.176C3.384 7.788 3.072 8.172 2.448 8.172ZM6.384 7.176V6.156H7.092C7.944 6.156 8.304 6.504 8.304 7.188C8.304 7.896 7.884 8.172 7.32 8.172C6.696 8.172 6.384 7.788 6.384 7.176ZM12.0294 4.17H12.4674C12.6194 4.17 12.7414 4.152 12.8334 4.116C12.9254 4.076 13.0094 4.01 13.0854 3.918L15.9474 0.677999C16.0274 0.573999 16.1114 0.501999 16.1994 0.461999C16.2874 0.421999 16.3954 0.401999 16.5234 0.401999H17.5074L14.2314 4.104C14.1514 4.2 14.0734 4.28 13.9974 4.344C13.9254 4.404 13.8474 4.454 13.7634 4.494C13.8714 4.53 13.9694 4.584 14.0574 4.656C14.1454 4.724 14.2314 4.814 14.3154 4.926L17.7354 9H16.7274C16.6514 9 16.5854 8.996 16.5294 8.988C16.4774 8.976 16.4314 8.96 16.3914 8.94C16.3514 8.916 16.3154 8.89 16.2834 8.862C16.2554 8.83 16.2274 8.794 16.1994 8.754L13.2354 5.34C13.1554 5.24 13.0694 5.17 12.9774 5.13C12.8854 5.086 12.7454 5.064 12.5574 5.064H12.0294V9H10.8714V0.401999H12.0294V4.17ZM18.1172 4.95H21.0812V5.856H18.1172V4.95ZM27.8083 4.74V5.184L23.1703 7.596V6.828C23.1703 6.764 23.1863 6.706 23.2183 6.654C23.2503 6.602 23.3063 6.556 23.3863 6.516L26.0803 5.154C26.1603 5.11 26.2443 5.074 26.3323 5.046C26.4243 5.014 26.5203 4.986 26.6203 4.962C26.4163 4.918 26.2363 4.856 26.0803 4.776L23.3863 3.408C23.3063 3.368 23.2503 3.324 23.2183 3.276C23.1863 3.224 23.1703 3.164 23.1703 3.096V2.334L27.8083 4.74ZM32.4173 4.86C32.7493 4.86 33.0413 4.816 33.2933 4.728C33.5493 4.64 33.7633 4.518 33.9353 4.362C34.1113 4.202 34.2433 4.012 34.3313 3.792C34.4193 3.572 34.4633 3.33 34.4633 3.066C34.4633 2.518 34.2933 2.09 33.9533 1.782C33.6173 1.474 33.1053 1.32 32.4173 1.32H31.0373V4.86H32.4173ZM32.4173 0.401999C32.9613 0.401999 33.4333 0.466 33.8333 0.594C34.2373 0.717999 34.5713 0.895999 34.8353 1.128C35.0993 1.36 35.2953 1.64 35.4232 1.968C35.5553 2.296 35.6213 2.662 35.6213 3.066C35.6213 3.466 35.5513 3.832 35.4113 4.164C35.2713 4.496 35.0653 4.782 34.7933 5.022C34.5253 5.262 34.1913 5.45 33.7913 5.586C33.3953 5.718 32.9373 5.784 32.4173 5.784H31.0373V9H29.8793V0.401999H32.4173Z" fill="#667085"/>
</svg>
