<svg width="35" height="10" viewBox="0 0 35 10" fill="none" xmlns="http://www.w3.org/2000/svg">
<path d="M2.448 9C3.792 9 4.224 8.16 4.224 7.152V6.156H5.544V7.152C5.544 8.16 5.976 9 7.32 9C8.436 9 9.156 8.292 9.156 7.188C9.156 6.024 8.46 5.34 7.092 5.34H6.384V4.02H7.092C8.46 4.02 9.156 3.336 9.156 2.172C9.156 1.068 8.436 0.36 7.32 0.36C5.976 0.36 5.544 1.2 5.544 2.208V3.204H4.224V2.208C4.224 1.2 3.792 0.36 2.448 0.36C1.332 0.36 0.612 1.068 0.612 2.172C0.612 3.336 1.308 4.02 2.676 4.02H3.384V5.34H2.676C1.308 5.34 0.612 6.024 0.612 7.188C0.612 8.292 1.332 9 2.448 9ZM6.384 2.184C6.384 1.572 6.696 1.188 7.32 1.188C7.884 1.188 8.304 1.464 8.304 2.172C8.304 2.856 7.944 3.204 7.092 3.204H6.384V2.184ZM2.676 3.204C1.824 3.204 1.464 2.856 1.464 2.172C1.464 1.464 1.884 1.188 2.448 1.188C3.072 1.188 3.384 1.572 3.384 2.184V3.204H2.676ZM4.224 5.34V4.02H5.544V5.34H4.224ZM2.448 8.172C1.884 8.172 1.464 7.896 1.464 7.188C1.464 6.504 1.824 6.156 2.676 6.156H3.384V7.176C3.384 7.788 3.072 8.172 2.448 8.172ZM6.384 7.176V6.156H7.092C7.944 6.156 8.304 6.504 8.304 7.188C8.304 7.896 7.884 8.172 7.32 8.172C6.696 8.172 6.384 7.788 6.384 7.176ZM12.0294 4.17H12.4674C12.6194 4.17 12.7414 4.152 12.8334 4.116C12.9254 4.076 13.0094 4.01 13.0854 3.918L15.9474 0.677999C16.0274 0.573999 16.1114 0.501999 16.1994 0.461999C16.2874 0.421999 16.3954 0.401999 16.5234 0.401999H17.5074L14.2314 4.104C14.1514 4.2 14.0734 4.28 13.9974 4.344C13.9254 4.404 13.8474 4.454 13.7634 4.494C13.8714 4.53 13.9694 4.584 14.0574 4.656C14.1454 4.724 14.2314 4.814 14.3154 4.926L17.7354 9H16.7274C16.6514 9 16.5854 8.996 16.5294 8.988C16.4774 8.976 16.4314 8.96 16.3914 8.94C16.3514 8.916 16.3154 8.89 16.2834 8.862C16.2554 8.83 16.2274 8.794 16.1994 8.754L13.2354 5.34C13.1554 5.24 13.0694 5.17 12.9774 5.13C12.8854 5.086 12.7454 5.064 12.5574 5.064H12.0294V9H10.8714V0.401999H12.0294V4.17ZM18.1172 4.95H21.0812V5.856H18.1172V4.95ZM27.8083 4.74V5.184L23.1703 7.596V6.828C23.1703 6.764 23.1863 6.706 23.2183 6.654C23.2503 6.602 23.3063 6.556 23.3863 6.516L26.0803 5.154C26.1603 5.11 26.2443 5.074 26.3323 5.046C26.4243 5.014 26.5203 4.986 26.6203 4.962C26.4163 4.918 26.2363 4.856 26.0803 4.776L23.3863 3.408C23.3063 3.368 23.2503 3.324 23.2183 3.276C23.1863 3.224 23.1703 3.164 23.1703 3.096V2.334L27.8083 4.74ZM34.2773 1.746C34.2413 1.806 34.2013 1.852 34.1573 1.884C34.1173 1.912 34.0673 1.926 34.0073 1.926C33.9393 1.926 33.8593 1.892 33.7673 1.824C33.6753 1.756 33.5593 1.682 33.4193 1.602C33.2833 1.518 33.1173 1.442 32.9213 1.374C32.7293 1.306 32.4953 1.272 32.2193 1.272C31.9593 1.272 31.7293 1.308 31.5293 1.38C31.3333 1.448 31.1673 1.542 31.0313 1.662C30.8993 1.782 30.7993 1.924 30.7313 2.088C30.6633 2.248 30.6293 2.422 30.6293 2.61C30.6293 2.85 30.6873 3.05 30.8033 3.21C30.9233 3.366 31.0793 3.5 31.2713 3.612C31.4673 3.724 31.6873 3.822 31.9313 3.906C32.1793 3.986 32.4313 4.07 32.6873 4.158C32.9473 4.246 33.1993 4.346 33.4433 4.458C33.6913 4.566 33.9113 4.704 34.1033 4.872C34.2993 5.04 34.4553 5.246 34.5713 5.49C34.6913 5.734 34.7513 6.034 34.7513 6.39C34.7513 6.766 34.6873 7.12 34.5593 7.452C34.4313 7.78 34.2433 8.066 33.9953 8.31C33.7513 8.554 33.4493 8.746 33.0893 8.886C32.7333 9.026 32.3273 9.096 31.8713 9.096C31.3113 9.096 30.8033 8.996 30.3473 8.796C29.8913 8.592 29.5012 8.318 29.1772 7.974L29.5133 7.422C29.5453 7.378 29.5833 7.342 29.6273 7.314C29.6753 7.282 29.7273 7.266 29.7833 7.266C29.8353 7.266 29.8933 7.288 29.9573 7.332C30.0253 7.372 30.1013 7.424 30.1853 7.488C30.2693 7.552 30.3653 7.622 30.4733 7.698C30.5813 7.774 30.7033 7.844 30.8393 7.908C30.9793 7.972 31.1373 8.026 31.3133 8.07C31.4893 8.11 31.6873 8.13 31.9073 8.13C32.1833 8.13 32.4293 8.092 32.6453 8.016C32.8613 7.94 33.0433 7.834 33.1913 7.698C33.3433 7.558 33.4593 7.392 33.5393 7.2C33.6193 7.008 33.6593 6.794 33.6593 6.558C33.6593 6.298 33.5993 6.086 33.4793 5.922C33.3633 5.754 33.2093 5.614 33.0173 5.502C32.8253 5.39 32.6053 5.296 32.3573 5.22C32.1093 5.14 31.8573 5.06 31.6013 4.98C31.3453 4.896 31.0933 4.8 30.8453 4.692C30.5973 4.584 30.3773 4.444 30.1853 4.272C29.9933 4.1 29.8373 3.886 29.7173 3.63C29.6013 3.37 29.5433 3.05 29.5433 2.67C29.5433 2.366 29.6013 2.072 29.7173 1.788C29.8373 1.504 30.0093 1.252 30.2333 1.032C30.4613 0.812 30.7393 0.636 31.0673 0.504C31.3993 0.372 31.7793 0.305999 32.2073 0.305999C32.6873 0.305999 33.1233 0.381999 33.5153 0.534C33.9113 0.686 34.2593 0.906 34.5593 1.194L34.2773 1.746Z" fill="#667085"/>
</svg>
