<svg width="38" height="10" viewBox="0 0 38 10" fill="none" xmlns="http://www.w3.org/2000/svg">
<path d="M2.2983 9.19602C1.96023 9.19602 1.65057 9.11364 1.36932 8.94886C1.08807 8.78125 0.863636 8.55682 0.696023 8.27557C0.53125 7.99432 0.448864 7.68466 0.448864 7.34659C0.448864 7.00568 0.53125 6.6946 0.696023 6.41335C0.863636 6.1321 1.08807 5.90767 1.36932 5.74006C1.65057 5.57244 1.96023 5.48864 2.2983 5.48864H3.28693V3.77557H2.2983C1.96023 3.77557 1.65057 3.69318 1.36932 3.52841C1.08807 3.3608 0.863636 3.13778 0.696023 2.85938C0.53125 2.57812 0.448864 2.26705 0.448864 1.92614C0.448864 1.58523 0.53125 1.27557 0.696023 0.997159C0.863636 0.715909 1.08807 0.492898 1.36932 0.328125C1.65057 0.160511 1.96023 0.076704 2.2983 0.076704C2.6392 0.076704 2.95028 0.160511 3.23153 0.328125C3.51278 0.492898 3.73722 0.715909 3.90483 0.997159C4.07244 1.27557 4.15625 1.58523 4.15625 1.92614V2.90625H5.86932V1.92614C5.86932 1.58523 5.9517 1.27557 6.11648 0.997159C6.28409 0.715909 6.5071 0.492898 6.78551 0.328125C7.06676 0.160511 7.37784 0.076704 7.71875 0.076704C8.05966 0.076704 8.36932 0.160511 8.64773 0.328125C8.92898 0.492898 9.15199 0.715909 9.31676 0.997159C9.48438 1.27557 9.56818 1.58523 9.56818 1.92614C9.56818 2.26705 9.48438 2.57812 9.31676 2.85938C9.15199 3.13778 8.92898 3.3608 8.64773 3.52841C8.36932 3.69318 8.05966 3.77557 7.71875 3.77557H6.73864V5.48864H7.71875C8.05966 5.48864 8.36932 5.57244 8.64773 5.74006C8.92898 5.90767 9.15199 6.1321 9.31676 6.41335C9.48438 6.6946 9.56818 7.00568 9.56818 7.34659C9.56818 7.68466 9.48438 7.99432 9.31676 8.27557C9.15199 8.55682 8.92898 8.78125 8.64773 8.94886C8.36932 9.11364 8.05966 9.19602 7.71875 9.19602C7.37784 9.19602 7.06676 9.11364 6.78551 8.94886C6.5071 8.78125 6.28409 8.55682 6.11648 8.27557C5.9517 7.99432 5.86932 7.68466 5.86932 7.34659V6.35795H4.15625V7.34659C4.15625 7.68466 4.07244 7.99432 3.90483 8.27557C3.73722 8.55682 3.51278 8.78125 3.23153 8.94886C2.95028 9.11364 2.6392 9.19602 2.2983 9.19602ZM2.2983 8.3267C2.48011 8.3267 2.64489 8.28267 2.79261 8.1946C2.94318 8.10653 3.0625 7.98864 3.15057 7.84091C3.24148 7.69034 3.28693 7.52557 3.28693 7.34659V6.35795H2.2983C2.11932 6.35795 1.95455 6.40341 1.80398 6.49432C1.65625 6.58239 1.53835 6.7017 1.45028 6.85227C1.36222 7 1.31818 7.16477 1.31818 7.34659C1.31818 7.52557 1.36222 7.69034 1.45028 7.84091C1.53835 7.98864 1.65625 8.10653 1.80398 8.1946C1.95455 8.28267 2.11932 8.3267 2.2983 8.3267ZM2.2983 2.90625H3.28693V1.92614C3.28693 1.74432 3.24148 1.57955 3.15057 1.43182C3.0625 1.28409 2.94318 1.16619 2.79261 1.07812C2.64489 0.990057 2.48011 0.946022 2.2983 0.946022C2.11932 0.946022 1.95455 0.990057 1.80398 1.07812C1.65625 1.16619 1.53835 1.28409 1.45028 1.43182C1.36222 1.57955 1.31818 1.74432 1.31818 1.92614C1.31818 2.10795 1.36222 2.27415 1.45028 2.42472C1.53835 2.57244 1.65625 2.69034 1.80398 2.77841C1.95455 2.86364 2.11932 2.90625 2.2983 2.90625ZM6.73864 2.90625H7.71875C7.90057 2.90625 8.06534 2.86364 8.21307 2.77841C8.3608 2.69034 8.47869 2.57244 8.56676 2.42472C8.65483 2.27415 8.69886 2.10795 8.69886 1.92614C8.69886 1.74432 8.65483 1.57955 8.56676 1.43182C8.47869 1.28409 8.3608 1.16619 8.21307 1.07812C8.06534 0.990057 7.90057 0.946022 7.71875 0.946022C7.53693 0.946022 7.37074 0.990057 7.22017 1.07812C7.07244 1.16619 6.95455 1.28409 6.86648 1.43182C6.78125 1.57955 6.73864 1.74432 6.73864 1.92614V2.90625ZM7.71875 8.3267C7.90057 8.3267 8.06534 8.28267 8.21307 8.1946C8.3608 8.10653 8.47869 7.98864 8.56676 7.84091C8.65483 7.69034 8.69886 7.52557 8.69886 7.34659C8.69886 7.16477 8.65483 7 8.56676 6.85227C8.47869 6.7017 8.3608 6.58239 8.21307 6.49432C8.06534 6.40341 7.90057 6.35795 7.71875 6.35795H6.73864V7.34659C6.73864 7.52557 6.78125 7.69034 6.86648 7.84091C6.95455 7.98864 7.07244 8.10653 7.22017 8.1946C7.37074 8.28267 7.53693 8.3267 7.71875 8.3267ZM4.15625 5.48864H5.86932V3.77557H4.15625V5.48864ZM12.0685 9V0.272727H13.1254V4.60227H13.2276L17.1481 0.272727H18.5288L14.864 4.21023L18.5288 9H17.2504L14.2163 4.94318L13.1254 6.17045V9H12.0685ZM23.9908 8.45455L23.3345 7.80682L26.0362 5.10511H19.0391V4.16761H26.0362L23.3345 1.47443L23.9908 0.818182L27.8089 4.63636L23.9908 8.45455ZM37.0678 3H36.011C35.9485 2.69602 35.8391 2.42898 35.6829 2.19886C35.5295 1.96875 35.342 1.77557 35.1204 1.61932C34.9016 1.46023 34.6587 1.34091 34.3917 1.26136C34.1246 1.18182 33.8462 1.14205 33.5565 1.14205C33.0281 1.14205 32.5494 1.27557 32.1204 1.54261C31.6942 1.80966 31.3548 2.20312 31.1019 2.72301C30.8519 3.2429 30.7269 3.88068 30.7269 4.63636C30.7269 5.39205 30.8519 6.02983 31.1019 6.54972C31.3548 7.0696 31.6942 7.46307 32.1204 7.73011C32.5494 7.99716 33.0281 8.13068 33.5565 8.13068C33.8462 8.13068 34.1246 8.09091 34.3917 8.01136C34.6587 7.93182 34.9016 7.81392 35.1204 7.65767C35.342 7.49858 35.5295 7.30398 35.6829 7.07386C35.8391 6.84091 35.9485 6.57386 36.011 6.27273H37.0678C36.9883 6.71875 36.8434 7.1179 36.6332 7.47017C36.4229 7.82244 36.1616 8.12216 35.8491 8.36932C35.5366 8.61364 35.1857 8.79972 34.7965 8.92756C34.4102 9.0554 33.9968 9.11932 33.5565 9.11932C32.8121 9.11932 32.1502 8.9375 31.5707 8.57386C30.9911 8.21023 30.5352 7.69318 30.2028 7.02273C29.8704 6.35227 29.7042 5.55682 29.7042 4.63636C29.7042 3.71591 29.8704 2.92045 30.2028 2.25C30.5352 1.57955 30.9911 1.0625 31.5707 0.698864C32.1502 0.335227 32.8121 0.153409 33.5565 0.153409C33.9968 0.153409 34.4102 0.217329 34.7965 0.34517C35.1857 0.473011 35.5366 0.660511 35.8491 0.90767C36.1616 1.15199 36.4229 1.45028 36.6332 1.80256C36.8434 2.15199 36.9883 2.55114 37.0678 3Z" fill="#667085"/>
</svg>
