<svg width="18" height="10" viewBox="0 0 18 10" fill="none" xmlns="http://www.w3.org/2000/svg">
<path d="M2.2983 9.19602C1.96023 9.19602 1.65057 9.11364 1.36932 8.94886C1.08807 8.78125 0.863636 8.55682 0.696023 8.27557C0.53125 7.99432 0.448864 7.68466 0.448864 7.34659C0.448864 7.00568 0.53125 6.6946 0.696023 6.41335C0.863636 6.1321 1.08807 5.90767 1.36932 5.74006C1.65057 5.57244 1.96023 5.48864 2.2983 5.48864H3.28693V3.77557H2.2983C1.96023 3.77557 1.65057 3.69318 1.36932 3.52841C1.08807 3.3608 0.863636 3.13778 0.696023 2.85938C0.53125 2.57812 0.448864 2.26705 0.448864 1.92614C0.448864 1.58523 0.53125 1.27557 0.696023 0.997159C0.863636 0.715909 1.08807 0.492898 1.36932 0.328125C1.65057 0.160511 1.96023 0.076704 2.2983 0.076704C2.6392 0.076704 2.95028 0.160511 3.23153 0.328125C3.51278 0.492898 3.73722 0.715909 3.90483 0.997159C4.07244 1.27557 4.15625 1.58523 4.15625 1.92614V2.90625H5.86932V1.92614C5.86932 1.58523 5.9517 1.27557 6.11648 0.997159C6.28409 0.715909 6.5071 0.492898 6.78551 0.328125C7.06676 0.160511 7.37784 0.076704 7.71875 0.076704C8.05966 0.076704 8.36932 0.160511 8.64773 0.328125C8.92898 0.492898 9.15199 0.715909 9.31676 0.997159C9.48438 1.27557 9.56818 1.58523 9.56818 1.92614C9.56818 2.26705 9.48438 2.57812 9.31676 2.85938C9.15199 3.13778 8.92898 3.3608 8.64773 3.52841C8.36932 3.69318 8.05966 3.77557 7.71875 3.77557H6.73864V5.48864H7.71875C8.05966 5.48864 8.36932 5.57244 8.64773 5.74006C8.92898 5.90767 9.15199 6.1321 9.31676 6.41335C9.48438 6.6946 9.56818 7.00568 9.56818 7.34659C9.56818 7.68466 9.48438 7.99432 9.31676 8.27557C9.15199 8.55682 8.92898 8.78125 8.64773 8.94886C8.36932 9.11364 8.05966 9.19602 7.71875 9.19602C7.37784 9.19602 7.06676 9.11364 6.78551 8.94886C6.5071 8.78125 6.28409 8.55682 6.11648 8.27557C5.9517 7.99432 5.86932 7.68466 5.86932 7.34659V6.35795H4.15625V7.34659C4.15625 7.68466 4.07244 7.99432 3.90483 8.27557C3.73722 8.55682 3.51278 8.78125 3.23153 8.94886C2.95028 9.11364 2.6392 9.19602 2.2983 9.19602ZM2.2983 8.3267C2.48011 8.3267 2.64489 8.28267 2.79261 8.1946C2.94318 8.10653 3.0625 7.98864 3.15057 7.84091C3.24148 7.69034 3.28693 7.52557 3.28693 7.34659V6.35795H2.2983C2.11932 6.35795 1.95455 6.40341 1.80398 6.49432C1.65625 6.58239 1.53835 6.7017 1.45028 6.85227C1.36222 7 1.31818 7.16477 1.31818 7.34659C1.31818 7.52557 1.36222 7.69034 1.45028 7.84091C1.53835 7.98864 1.65625 8.10653 1.80398 8.1946C1.95455 8.28267 2.11932 8.3267 2.2983 8.3267ZM2.2983 2.90625H3.28693V1.92614C3.28693 1.74432 3.24148 1.57955 3.15057 1.43182C3.0625 1.28409 2.94318 1.16619 2.79261 1.07812C2.64489 0.990057 2.48011 0.946022 2.2983 0.946022C2.11932 0.946022 1.95455 0.990057 1.80398 1.07812C1.65625 1.16619 1.53835 1.28409 1.45028 1.43182C1.36222 1.57955 1.31818 1.74432 1.31818 1.92614C1.31818 2.10795 1.36222 2.27415 1.45028 2.42472C1.53835 2.57244 1.65625 2.69034 1.80398 2.77841C1.95455 2.86364 2.11932 2.90625 2.2983 2.90625ZM6.73864 2.90625H7.71875C7.90057 2.90625 8.06534 2.86364 8.21307 2.77841C8.3608 2.69034 8.47869 2.57244 8.56676 2.42472C8.65483 2.27415 8.69886 2.10795 8.69886 1.92614C8.69886 1.74432 8.65483 1.57955 8.56676 1.43182C8.47869 1.28409 8.3608 1.16619 8.21307 1.07812C8.06534 0.990057 7.90057 0.946022 7.71875 0.946022C7.53693 0.946022 7.37074 0.990057 7.22017 1.07812C7.07244 1.16619 6.95455 1.28409 6.86648 1.43182C6.78125 1.57955 6.73864 1.74432 6.73864 1.92614V2.90625ZM7.71875 8.3267C7.90057 8.3267 8.06534 8.28267 8.21307 8.1946C8.3608 8.10653 8.47869 7.98864 8.56676 7.84091C8.65483 7.69034 8.69886 7.52557 8.69886 7.34659C8.69886 7.16477 8.65483 7 8.56676 6.85227C8.47869 6.7017 8.3608 6.58239 8.21307 6.49432C8.06534 6.40341 7.90057 6.35795 7.71875 6.35795H6.73864V7.34659C6.73864 7.52557 6.78125 7.69034 6.86648 7.84091C6.95455 7.98864 7.07244 8.10653 7.22017 8.1946C7.37074 8.28267 7.53693 8.3267 7.71875 8.3267ZM4.15625 5.48864H5.86932V3.77557H4.15625V5.48864ZM16.8413 2.45455C16.7901 2.02273 16.5827 1.6875 16.2191 1.44886C15.8555 1.21023 15.4094 1.09091 14.881 1.09091C14.4947 1.09091 14.1566 1.15341 13.8668 1.27841C13.5799 1.40341 13.3555 1.57528 13.1935 1.79403C13.0344 2.01278 12.9549 2.26136 12.9549 2.53977C12.9549 2.77273 13.0103 2.97301 13.1211 3.14062C13.2347 3.3054 13.3796 3.44318 13.5558 3.55398C13.7319 3.66193 13.9165 3.75142 14.1097 3.82244C14.3029 3.89062 14.4805 3.94602 14.6424 3.98864L15.5288 4.22727C15.756 4.28693 16.0089 4.36932 16.2873 4.47443C16.5685 4.57955 16.837 4.72301 17.0927 4.90483C17.3512 5.08381 17.5643 5.31392 17.7319 5.59517C17.8995 5.87642 17.9833 6.22159 17.9833 6.63068C17.9833 7.10227 17.8597 7.52841 17.6126 7.90909C17.3683 8.28977 17.0103 8.59233 16.5387 8.81676C16.07 9.04119 15.5004 9.15341 14.8299 9.15341C14.2049 9.15341 13.6637 9.05256 13.2063 8.85085C12.7518 8.64915 12.3938 8.3679 12.1325 8.0071C11.8739 7.64631 11.7276 7.22727 11.6935 6.75H12.7844C12.8129 7.07955 12.9237 7.35227 13.1168 7.56818C13.3129 7.78125 13.56 7.94034 13.8583 8.04545C14.1594 8.14773 14.4833 8.19886 14.8299 8.19886C15.2333 8.19886 15.5955 8.13352 15.9165 8.00284C16.2376 7.86932 16.4918 7.68466 16.6793 7.44886C16.8668 7.21023 16.9606 6.93182 16.9606 6.61364C16.9606 6.32386 16.8796 6.08807 16.7177 5.90625C16.5558 5.72443 16.3427 5.5767 16.0785 5.46307C15.8143 5.34943 15.5288 5.25 15.2219 5.16477L14.1481 4.85795C13.4663 4.66193 12.9265 4.3821 12.5288 4.01847C12.131 3.65483 11.9322 3.17898 11.9322 2.59091C11.9322 2.10227 12.0643 1.67614 12.3285 1.3125C12.5955 0.946023 12.9535 0.661932 13.4023 0.460227C13.854 0.255682 14.3583 0.153409 14.9151 0.153409C15.4776 0.153409 15.9776 0.254261 16.4151 0.455966C16.8526 0.654829 17.1992 0.927556 17.4549 1.27415C17.7134 1.62074 17.8498 2.0142 17.864 2.45455H16.8413Z" fill="#667085"/>
</svg>
