<svg width="18" height="10" viewBox="0 0 18 10" fill="none" xmlns="http://www.w3.org/2000/svg">
<path d="M2.448 9C3.792 9 4.224 8.16 4.224 7.152V6.156H5.544V7.152C5.544 8.16 5.976 9 7.32 9C8.436 9 9.156 8.292 9.156 7.188C9.156 6.024 8.46 5.34 7.092 5.34H6.384V4.02H7.092C8.46 4.02 9.156 3.336 9.156 2.172C9.156 1.068 8.436 0.36 7.32 0.36C5.976 0.36 5.544 1.2 5.544 2.208V3.204H4.224V2.208C4.224 1.2 3.792 0.36 2.448 0.36C1.332 0.36 0.612 1.068 0.612 2.172C0.612 3.336 1.308 4.02 2.676 4.02H3.384V5.34H2.676C1.308 5.34 0.612 6.024 0.612 7.188C0.612 8.292 1.332 9 2.448 9ZM6.384 2.184C6.384 1.572 6.696 1.188 7.32 1.188C7.884 1.188 8.304 1.464 8.304 2.172C8.304 2.856 7.944 3.204 7.092 3.204H6.384V2.184ZM2.676 3.204C1.824 3.204 1.464 2.856 1.464 2.172C1.464 1.464 1.884 1.188 2.448 1.188C3.072 1.188 3.384 1.572 3.384 2.184V3.204H2.676ZM4.224 5.34V4.02H5.544V5.34H4.224ZM2.448 8.172C1.884 8.172 1.464 7.896 1.464 7.188C1.464 6.504 1.824 6.156 2.676 6.156H3.384V7.176C3.384 7.788 3.072 8.172 2.448 8.172ZM6.384 7.176V6.156H7.092C7.944 6.156 8.304 6.504 8.304 7.188C8.304 7.896 7.884 8.172 7.32 8.172C6.696 8.172 6.384 7.788 6.384 7.176ZM16.9074 7.224C16.9714 7.224 17.0274 7.25 17.0754 7.302L17.5374 7.8C17.1854 8.208 16.7574 8.526 16.2534 8.754C15.7534 8.982 15.1474 9.096 14.4354 9.096C13.8194 9.096 13.2594 8.99 12.7554 8.778C12.2514 8.562 11.8214 8.262 11.4654 7.878C11.1094 7.49 10.8334 7.026 10.6374 6.486C10.4414 5.946 10.3434 5.352 10.3434 4.704C10.3434 4.056 10.4454 3.462 10.6494 2.922C10.8534 2.382 11.1394 1.918 11.5074 1.53C11.8794 1.142 12.3234 0.842 12.8394 0.629999C13.3554 0.413999 13.9254 0.305999 14.5494 0.305999C15.1614 0.305999 15.7014 0.403999 16.1694 0.599999C16.6374 0.796 17.0494 1.062 17.4054 1.398L17.0214 1.932C16.9974 1.972 16.9654 2.006 16.9254 2.034C16.8894 2.058 16.8394 2.07 16.7754 2.07C16.7034 2.07 16.6154 2.032 16.5114 1.956C16.4074 1.876 16.2714 1.788 16.1034 1.692C15.9354 1.596 15.7254 1.51 15.4734 1.434C15.2214 1.354 14.9114 1.314 14.5434 1.314C14.0994 1.314 13.6934 1.392 13.3254 1.548C12.9574 1.7 12.6394 1.922 12.3714 2.214C12.1074 2.506 11.9014 2.862 11.7534 3.282C11.6054 3.702 11.5314 4.176 11.5314 4.704C11.5314 5.24 11.6074 5.718 11.7594 6.138C11.9154 6.558 12.1254 6.914 12.3894 7.206C12.6574 7.494 12.9714 7.714 13.3314 7.866C13.6954 8.018 14.0874 8.094 14.5074 8.094C14.7634 8.094 14.9934 8.08 15.1974 8.052C15.4054 8.02 15.5954 7.972 15.7674 7.908C15.9434 7.844 16.1054 7.764 16.2534 7.668C16.4054 7.568 16.5554 7.45 16.7034 7.314C16.7714 7.254 16.8394 7.224 16.9074 7.224Z" fill="#667085"/>
</svg>
