<svg width="32" height="11" viewBox="0 0 32 11" fill="none" xmlns="http://www.w3.org/2000/svg">
<path d="M6.09943 1.27273H10.1818V2.21023H6.09943V1.27273ZM0.0909091 2.21023V1.27273H3.44886L7.38636 9.0625H10.1818V10H6.82386L2.88636 2.21023H0.0909091ZM12.3604 5.63636L17.4059 0.590909L22.4513 5.63636H19.8604V10H14.9513V5.63636H12.3604ZM14.2738 4.86932H15.8036V9.23295H19.0082V4.86932H20.538L17.4059 1.73722L14.2738 4.86932ZM27.7663 7.27273H28.9254L29.897 8.55114L30.1527 8.89205L31.6016 10.8182H30.4425L29.4879 9.53977L29.2493 9.21591L27.7663 7.27273ZM31.9595 5.63636C31.9595 6.55682 31.7933 7.35227 31.4609 8.02273C31.1286 8.69318 30.6726 9.21023 30.093 9.57386C29.5135 9.9375 28.8516 10.1193 28.1072 10.1193C27.3629 10.1193 26.701 9.9375 26.1214 9.57386C25.5419 9.21023 25.0859 8.69318 24.7536 8.02273C24.4212 7.35227 24.255 6.55682 24.255 5.63636C24.255 4.71591 24.4212 3.92045 24.7536 3.25C25.0859 2.57955 25.5419 2.0625 26.1214 1.69886C26.701 1.33523 27.3629 1.15341 28.1072 1.15341C28.8516 1.15341 29.5135 1.33523 30.093 1.69886C30.6726 2.0625 31.1286 2.57955 31.4609 3.25C31.7933 3.92045 31.9595 4.71591 31.9595 5.63636ZM30.9368 5.63636C30.9368 4.88068 30.8104 4.2429 30.5575 3.72301C30.3075 3.20312 29.968 2.80966 29.5391 2.54261C29.1129 2.27557 28.6357 2.14205 28.1072 2.14205C27.5788 2.14205 27.1001 2.27557 26.6712 2.54261C26.245 2.80966 25.9055 3.20312 25.6527 3.72301C25.4027 4.2429 25.2777 4.88068 25.2777 5.63636C25.2777 6.39205 25.4027 7.02983 25.6527 7.54972C25.9055 8.0696 26.245 8.46307 26.6712 8.73011C27.1001 8.99716 27.5788 9.13068 28.1072 9.13068C28.6357 9.13068 29.1129 8.99716 29.5391 8.73011C29.968 8.46307 30.3075 8.0696 30.5575 7.54972C30.8104 7.02983 30.9368 6.39205 30.9368 5.63636Z" fill="#667085"/>
</svg>
