<svg width="40" height="40" viewBox="0 0 40 40" fill="none" xmlns="http://www.w3.org/2000/svg">
<rect width="40" height="40" rx="20" fill="#FEE4E2"/>
<path fill-rule="evenodd" clip-rule="evenodd" d="M14 11C14 10.4477 13.5523 10 13 10C12.4477 10 12 10.4477 12 11V16C12 17.8638 13.2748 19.4299 15 19.874V29C15 29.5523 15.4477 30 16 30C16.5523 30 17 29.5523 17 29V19.874C18.7252 19.4299 20 17.8638 20 16V11C20 10.4477 19.5523 10 19 10C18.4477 10 18 10.4477 18 11V16C18 16.7403 17.5978 17.3866 17 17.7324V11C17 10.4477 16.5523 10 16 10C15.4477 10 15 10.4477 15 11V17.7324C14.4022 17.3866 14 16.7403 14 16V11ZM23 10C22.4477 10 22 10.4477 22 11V29C22 29.5523 22.4477 30 23 30C23.5523 30 24 29.5523 24 29V21.9C26.2822 21.4367 28 19.419 28 17V15C28 12.2386 25.7614 10 23 10Z" fill="#F04438"/>
</svg>
