<svg width="40" height="40" viewBox="0 0 40 40" fill="none" xmlns="http://www.w3.org/2000/svg">
<rect width="40" height="40" rx="20" fill="#D3F8DF"/>
<path fill-rule="evenodd" clip-rule="evenodd" d="M14.4393 12.4393C14.7206 12.158 15.1022 12 15.5 12C16.6939 12 17.5573 12.8383 18.1863 13.9819C18.3774 14.3294 18.5319 14.6806 18.654 15H15.5C15.1022 15 14.7206 14.842 14.4393 14.5607C14.158 14.2794 14 13.8978 14 13.5C14 13.1022 14.158 12.7206 14.4393 12.4393ZM12 13.5C12 14.0558 12.1322 14.598 12.3792 15.0845C12.1283 15.13 11.8801 15.2036 11.638 15.327C11.0735 15.6146 10.6146 16.0735 10.327 16.638C10.1342 17.0164 10.0629 17.4096 10.0306 17.805C9.99997 18.1795 9.99998 18.6343 10 19.1614V19.1615V25.8385V25.8386C9.99998 26.3657 9.99997 26.8205 10.0306 27.195C10.0629 27.5904 10.1342 27.9836 10.327 28.362C10.6146 28.9265 11.0735 29.3854 11.638 29.673C12.0164 29.8658 12.4096 29.9371 12.805 29.9694C13.1795 30 13.6343 30 14.1614 30H19V19H21V30H25.8386C26.3657 30 26.8205 30 27.195 29.9694C27.5904 29.9371 27.9836 29.8658 28.362 29.673C28.9265 29.3854 29.3854 28.9265 29.673 28.362C29.8658 27.9836 29.9371 27.5904 29.9694 27.195C30 26.8205 30 26.3657 30 25.8386V19.1614C30 18.6343 30 18.1795 29.9694 17.805C29.9371 17.4096 29.8658 17.0164 29.673 16.638C29.3854 16.0735 28.9265 15.6146 28.362 15.327C28.1199 15.2036 27.8717 15.13 27.6208 15.0845C27.8678 14.598 28 14.0558 28 13.5C28 12.5717 27.6313 11.6815 26.9749 11.0251C26.3185 10.3687 25.4283 10 24.5 10C22.1939 10 20.8073 11.6617 20.0613 13.0181C20.0405 13.0559 20.0201 13.0937 20 13.1314C19.9799 13.0937 19.9595 13.0559 19.9387 13.0181C19.1927 11.6617 17.8061 10 15.5 10C14.5717 10 13.6815 10.3687 13.0251 11.0251C12.3688 11.6815 12 12.5717 12 13.5ZM25.5607 14.5607C25.2794 14.842 24.8978 15 24.5 15H21.346C21.4681 14.6806 21.6226 14.3294 21.8137 13.9819C22.4427 12.8383 23.3061 12 24.5 12C24.8978 12 25.2794 12.158 25.5607 12.4393C25.842 12.7206 26 13.1022 26 13.5C26 13.8978 25.842 14.2794 25.5607 14.5607Z" fill="#16B364"/>
</svg>
