<svg width="40" height="40" viewBox="0 0 40 40" fill="none" xmlns="http://www.w3.org/2000/svg">
<rect width="40" height="40" rx="20" fill="#D1E9FF"/>
<path fill-rule="evenodd" clip-rule="evenodd" d="M22.6257 11C22.6257 11.6954 22.3494 12.3622 21.8577 12.8539C21.366 13.3456 20.6992 13.6218 20.0038 13.6218C19.3085 13.6218 18.6416 13.3456 18.1499 12.8539C17.6582 12.3622 17.382 11.6954 17.382 11H16.9775C16.8481 10.9995 16.7212 11.0369 16.6127 11.1075L12.0393 13.4295C11.9005 13.5181 11.7996 13.6552 11.7565 13.8142L10.0228 19.5839C9.99955 19.6707 9.99402 19.7612 10.0065 19.8501C10.019 19.9391 10.0492 20.0246 10.0953 20.1016C10.1415 20.1787 10.2027 20.2456 10.2752 20.2986C10.3478 20.3515 10.4303 20.3893 10.5177 20.4098L13.6599 21.131H13.66V27.3872C13.6635 27.9565 13.8846 28.503 14.2779 28.9147C14.6712 29.3263 15.2069 29.5721 15.7755 29.6017C17.1279 29.8468 18.4993 29.9727 19.8737 29.9779H20.1283C21.5037 29.9729 22.876 29.847 24.2293 29.6017C24.7979 29.5721 25.3337 29.3263 25.727 28.9147C26.1203 28.503 26.3413 27.9565 26.3449 27.3872V21.1303L29.4843 20.4098C29.5717 20.3894 29.6541 20.3515 29.7265 20.2986C29.799 20.2456 29.86 20.1785 29.9059 20.1014C29.9519 20.0243 29.9818 19.9388 29.9939 19.8499C30.006 19.7609 30.0001 19.6705 29.9764 19.5839L28.2455 13.8142C28.2004 13.6562 28.1 13.5196 27.9627 13.4295L23.3893 11.1075C23.2796 11.0371 23.152 10.9998 23.0216 11L22.6257 11Z" fill="#0BA5EC"/>
</svg>
