<svg width="40" height="40" viewBox="0 0 40 40" fill="none" xmlns="http://www.w3.org/2000/svg">
<rect width="40" height="40" rx="20" fill="#FEF7C3"/>
<path fill-rule="evenodd" clip-rule="evenodd" d="M14 10C13.4477 10 13 10.4477 13 11V15C13 18.5265 15.6077 21.4439 19 21.9291V28H16C15.4477 28 15 28.4477 15 29C15 29.5523 15.4477 30 16 30H24C24.5523 30 25 29.5523 25 29C25 28.4477 24.5523 28 24 28H21V21.9291C24.3923 21.4439 27 18.5265 27 15V11C27 10.4477 26.5523 10 26 10H14Z" fill="#EAAA08"/>
</svg>
