<svg width="167" height="40" viewBox="0 0 167 40" fill="none" xmlns="http://www.w3.org/2000/svg">
<circle cx="20" cy="20" r="20" fill="#101828"/>
<path fill-rule="evenodd" clip-rule="evenodd" d="M27.0905 8.09082L28.3334 11.4692L27.7511 11.6813C26.0364 12.3056 24.5565 13.4366 23.5101 14.9209C22.464 16.4048 21.9014 18.1708 21.8975 19.9811C21.9009 21.7916 22.4631 23.5579 23.5089 25.0421C24.5549 26.5268 26.0347 27.6581 27.7493 28.2829L28.3311 28.4948L27.091 31.8735L26.5121 31.6627C24.9636 31.099 23.542 30.2372 22.3291 29.1267C21.4146 28.2895 20.6322 27.3233 20.0061 26.2608C19.3797 27.3318 18.5948 28.3058 17.676 29.1495C16.459 30.2668 15.0312 31.1332 13.4753 31.6988L12.8964 31.9092L11.6577 28.5306L12.2394 28.3187C13.954 27.6943 15.4339 26.5633 16.4802 25.079C17.5263 23.5951 18.0889 21.8292 18.093 20.0189C18.0892 18.2086 17.5267 16.4425 16.4806 14.9586C15.4342 13.4742 13.9542 12.3433 12.2394 11.7191L11.6577 11.5073L12.8964 8.12864L13.4752 8.33902C15.0242 8.90193 16.4463 9.76311 17.6597 10.8734C18.5746 11.7105 19.3573 12.6767 19.9836 13.7393C20.6098 12.6686 21.3945 11.6948 22.313 10.8512C23.5295 9.73398 24.9568 8.86739 26.5121 8.30133L27.0905 8.09082Z" fill="white"/>
<path d="M60.539 24.111C60.653 24.111 60.752 24.156 60.836 24.246L61.673 25.155C61.145 25.791 60.497 26.283 59.729 26.631C58.961 26.973 58.043 27.144 56.975 27.144C56.027 27.144 55.169 26.982 54.401 26.658C53.639 26.328 52.988 25.872 52.448 25.29C51.908 24.702 51.491 24.003 51.197 23.193C50.909 22.383 50.765 21.492 50.765 20.52C50.765 19.548 50.918 18.657 51.224 17.847C51.536 17.031 51.971 16.332 52.529 15.75C53.093 15.162 53.765 14.706 54.545 14.382C55.331 14.058 56.195 13.896 57.137 13.896C58.073 13.896 58.898 14.049 59.612 14.355C60.332 14.655 60.956 15.057 61.484 15.561L60.791 16.542C60.743 16.608 60.686 16.665 60.62 16.713C60.554 16.761 60.464 16.785 60.35 16.785C60.23 16.785 60.092 16.731 59.936 16.623C59.786 16.509 59.591 16.386 59.351 16.254C59.117 16.116 58.82 15.993 58.46 15.885C58.106 15.771 57.662 15.714 57.128 15.714C56.51 15.714 55.943 15.822 55.427 16.038C54.911 16.254 54.467 16.569 54.095 16.983C53.723 17.397 53.432 17.901 53.222 18.495C53.018 19.089 52.916 19.764 52.916 20.52C52.916 21.282 53.024 21.963 53.24 22.563C53.456 23.157 53.753 23.661 54.131 24.075C54.509 24.483 54.953 24.795 55.463 25.011C55.973 25.227 56.522 25.335 57.11 25.335C57.47 25.335 57.791 25.317 58.073 25.281C58.361 25.239 58.625 25.176 58.865 25.092C59.105 25.002 59.33 24.891 59.54 24.759C59.756 24.627 59.969 24.465 60.179 24.273C60.299 24.165 60.419 24.111 60.539 24.111ZM74.2201 14.04V27H72.1141V21.231H65.6071V27H63.4921V14.04H65.6071V19.71H72.1141V14.04H74.2201ZM79.4235 27H77.3085V14.04H79.4235V27ZM91.6925 25.335C92.1665 25.335 92.5655 25.281 92.8895 25.173C93.2195 25.059 93.4865 24.906 93.6905 24.714C93.9005 24.522 94.0505 24.297 94.1405 24.039C94.2365 23.775 94.2845 23.493 94.2845 23.193C94.2845 22.581 94.0745 22.101 93.6545 21.753C93.2405 21.399 92.5835 21.222 91.6835 21.222H89.0825V25.335H91.6925ZM89.0825 15.687V19.737H91.1885C92.0885 19.737 92.7605 19.563 93.2045 19.215C93.6485 18.867 93.8705 18.366 93.8705 17.712C93.8705 16.998 93.6605 16.482 93.2405 16.164C92.8265 15.846 92.1755 15.687 91.2875 15.687H89.0825ZM91.2875 14.04C92.1155 14.04 92.8235 14.121 93.4115 14.283C93.9995 14.439 94.4825 14.664 94.8605 14.958C95.2385 15.252 95.5145 15.612 95.6885 16.038C95.8685 16.458 95.9585 16.932 95.9585 17.46C95.9585 17.766 95.9105 18.063 95.8145 18.351C95.7245 18.633 95.5805 18.9 95.3825 19.152C95.1905 19.398 94.9475 19.62 94.6535 19.818C94.3595 20.016 94.0115 20.181 93.6095 20.313C95.4455 20.703 96.3635 21.678 96.3635 23.238C96.3635 23.79 96.2585 24.297 96.0485 24.759C95.8445 25.215 95.5445 25.611 95.1485 25.947C94.7585 26.277 94.2755 26.535 93.6995 26.721C93.1235 26.907 92.4665 27 91.7285 27H86.9765V14.04H91.2875ZM103.141 22.986C102.451 23.01 101.869 23.067 101.395 23.157C100.921 23.241 100.537 23.352 100.243 23.49C99.9486 23.622 99.7356 23.781 99.6036 23.967C99.4776 24.153 99.4146 24.357 99.4146 24.579C99.4146 24.795 99.4476 24.981 99.5136 25.137C99.5856 25.287 99.6816 25.413 99.8016 25.515C99.9276 25.611 100.072 25.683 100.234 25.731C100.402 25.773 100.585 25.794 100.783 25.794C101.287 25.794 101.719 25.701 102.079 25.515C102.445 25.323 102.799 25.047 103.141 24.687V22.986ZM98.0106 19.098C99.0486 18.132 100.285 17.649 101.719 17.649C102.247 17.649 102.715 17.736 103.123 17.91C103.537 18.078 103.882 18.318 104.158 18.63C104.44 18.942 104.653 19.314 104.797 19.746C104.947 20.172 105.022 20.646 105.022 21.168V27H104.158C103.972 27 103.831 26.973 103.735 26.919C103.639 26.859 103.558 26.742 103.492 26.568L103.303 25.821C103.069 26.031 102.838 26.22 102.61 26.388C102.382 26.55 102.145 26.688 101.899 26.802C101.659 26.916 101.398 27 101.116 27.054C100.84 27.114 100.534 27.144 100.198 27.144C99.8256 27.144 99.4776 27.093 99.1536 26.991C98.8356 26.889 98.5596 26.736 98.3256 26.532C98.0916 26.322 97.9056 26.064 97.7676 25.758C97.6356 25.452 97.5696 25.092 97.5696 24.678C97.5696 24.324 97.6626 23.979 97.8486 23.643C98.0406 23.307 98.3526 23.007 98.7846 22.743C99.2226 22.473 99.7956 22.251 100.504 22.077C101.218 21.903 102.097 21.804 103.141 21.78V21.168C103.141 20.508 103 20.016 102.718 19.692C102.436 19.368 102.022 19.206 101.476 19.206C101.104 19.206 100.792 19.254 100.54 19.35C100.288 19.44 100.069 19.539 99.8826 19.647C99.6966 19.755 99.5316 19.857 99.3876 19.953C99.2436 20.043 99.0906 20.088 98.9286 20.088C98.7966 20.088 98.6826 20.055 98.5866 19.989C98.4966 19.917 98.4216 19.83 98.3616 19.728L98.0106 19.098ZM113.777 19.62C113.717 19.698 113.66 19.758 113.606 19.8C113.552 19.842 113.474 19.863 113.372 19.863C113.27 19.863 113.162 19.827 113.048 19.755C112.94 19.683 112.808 19.605 112.652 19.521C112.502 19.431 112.319 19.35 112.103 19.278C111.887 19.206 111.617 19.17 111.293 19.17C110.873 19.17 110.504 19.245 110.186 19.395C109.874 19.545 109.61 19.761 109.394 20.043C109.184 20.319 109.025 20.658 108.917 21.06C108.815 21.456 108.764 21.903 108.764 22.401C108.764 22.917 108.821 23.376 108.935 23.778C109.049 24.18 109.211 24.519 109.421 24.795C109.637 25.071 109.895 25.281 110.195 25.425C110.501 25.569 110.843 25.641 111.221 25.641C111.593 25.641 111.896 25.596 112.13 25.506C112.364 25.416 112.559 25.317 112.715 25.209C112.871 25.101 113.003 25.002 113.111 24.912C113.225 24.822 113.345 24.777 113.471 24.777C113.627 24.777 113.747 24.837 113.831 24.957L114.38 25.668C114.158 25.938 113.912 26.166 113.642 26.352C113.372 26.538 113.087 26.691 112.787 26.811C112.487 26.925 112.175 27.006 111.851 27.054C111.527 27.108 111.2 27.135 110.87 27.135C110.3 27.135 109.766 27.03 109.268 26.82C108.776 26.604 108.344 26.295 107.972 25.893C107.606 25.485 107.315 24.99 107.099 24.408C106.889 23.82 106.784 23.151 106.784 22.401C106.784 21.723 106.88 21.096 107.072 20.52C107.264 19.938 107.543 19.437 107.909 19.017C108.281 18.597 108.74 18.27 109.286 18.036C109.832 17.796 110.462 17.676 111.176 17.676C111.842 17.676 112.427 17.784 112.931 18C113.441 18.216 113.894 18.522 114.29 18.918L113.777 19.62ZM117.872 13.68V21.402H118.286C118.418 21.402 118.526 21.384 118.61 21.348C118.694 21.312 118.781 21.237 118.871 21.123L121.445 18.18C121.535 18.06 121.634 17.97 121.742 17.91C121.85 17.85 121.988 17.82 122.156 17.82H123.911L120.815 21.312C120.635 21.546 120.437 21.732 120.221 21.87C120.341 21.954 120.446 22.05 120.536 22.158C120.626 22.26 120.713 22.377 120.797 22.509L124.1 27H122.372C122.216 27 122.081 26.976 121.967 26.928C121.859 26.874 121.763 26.778 121.679 26.64L119.024 23.04C118.934 22.902 118.844 22.815 118.754 22.779C118.664 22.737 118.529 22.716 118.349 22.716H117.872V27H115.937V13.68H117.872ZM130.822 19.485C130.774 19.569 130.72 19.629 130.66 19.665C130.6 19.701 130.525 19.719 130.435 19.719C130.333 19.719 130.222 19.689 130.102 19.629C129.982 19.563 129.841 19.491 129.679 19.413C129.517 19.335 129.325 19.266 129.103 19.206C128.887 19.14 128.632 19.107 128.338 19.107C128.098 19.107 127.879 19.137 127.681 19.197C127.489 19.251 127.324 19.332 127.186 19.44C127.054 19.542 126.952 19.665 126.88 19.809C126.808 19.947 126.772 20.097 126.772 20.259C126.772 20.475 126.838 20.655 126.97 20.799C127.102 20.943 127.276 21.069 127.492 21.177C127.708 21.279 127.954 21.372 128.23 21.456C128.506 21.54 128.788 21.63 129.076 21.726C129.364 21.822 129.646 21.933 129.922 22.059C130.198 22.185 130.444 22.341 130.66 22.527C130.876 22.707 131.05 22.929 131.182 23.193C131.314 23.451 131.38 23.766 131.38 24.138C131.38 24.57 131.302 24.969 131.146 25.335C130.99 25.701 130.762 26.019 130.462 26.289C130.162 26.559 129.787 26.769 129.337 26.919C128.893 27.069 128.383 27.144 127.807 27.144C127.489 27.144 127.18 27.114 126.88 27.054C126.586 27 126.304 26.925 126.034 26.829C125.77 26.727 125.521 26.607 125.287 26.469C125.059 26.331 124.855 26.181 124.675 26.019L125.125 25.281C125.179 25.191 125.245 25.122 125.323 25.074C125.407 25.02 125.509 24.993 125.629 24.993C125.755 24.993 125.878 25.035 125.998 25.119C126.124 25.197 126.268 25.284 126.43 25.38C126.598 25.476 126.799 25.566 127.033 25.65C127.267 25.728 127.558 25.767 127.906 25.767C128.194 25.767 128.443 25.734 128.653 25.668C128.863 25.596 129.037 25.5 129.175 25.38C129.313 25.26 129.415 25.125 129.481 24.975C129.547 24.819 129.58 24.654 129.58 24.48C129.58 24.246 129.514 24.054 129.382 23.904C129.25 23.754 129.073 23.625 128.851 23.517C128.635 23.409 128.386 23.313 128.104 23.229C127.828 23.145 127.546 23.055 127.258 22.959C126.97 22.863 126.685 22.752 126.403 22.626C126.127 22.5 125.878 22.341 125.656 22.149C125.44 21.951 125.266 21.714 125.134 21.438C125.002 21.156 124.936 20.814 124.936 20.412C124.936 20.046 125.008 19.698 125.152 19.368C125.302 19.038 125.518 18.747 125.8 18.495C126.088 18.243 126.439 18.045 126.853 17.901C127.273 17.751 127.756 17.676 128.302 17.676C128.92 17.676 129.481 17.775 129.985 17.973C130.489 18.171 130.912 18.441 131.254 18.783L130.822 19.485ZM136.142 27.144C135.38 27.144 134.792 26.931 134.378 26.505C133.97 26.073 133.766 25.467 133.766 24.687V19.341H132.758C132.65 19.341 132.557 19.308 132.479 19.242C132.401 19.17 132.362 19.065 132.362 18.927V18.144L133.847 17.928L134.27 15.273C134.3 15.171 134.351 15.09 134.423 15.03C134.495 14.964 134.591 14.931 134.711 14.931H135.701V17.946H138.248V19.341H135.701V24.552C135.701 24.882 135.782 25.134 135.944 25.308C136.106 25.482 136.322 25.569 136.592 25.569C136.742 25.569 136.871 25.551 136.979 25.515C137.087 25.473 137.18 25.431 137.258 25.389C137.336 25.341 137.402 25.299 137.456 25.263C137.516 25.221 137.573 25.2 137.627 25.2C137.735 25.2 137.822 25.26 137.888 25.38L138.464 26.325C138.164 26.589 137.81 26.793 137.402 26.937C136.994 27.075 136.574 27.144 136.142 27.144ZM144.678 22.986C143.988 23.01 143.406 23.067 142.932 23.157C142.458 23.241 142.074 23.352 141.78 23.49C141.486 23.622 141.273 23.781 141.141 23.967C141.015 24.153 140.952 24.357 140.952 24.579C140.952 24.795 140.985 24.981 141.051 25.137C141.123 25.287 141.219 25.413 141.339 25.515C141.465 25.611 141.609 25.683 141.771 25.731C141.939 25.773 142.122 25.794 142.32 25.794C142.824 25.794 143.256 25.701 143.616 25.515C143.982 25.323 144.336 25.047 144.678 24.687V22.986ZM139.548 19.098C140.586 18.132 141.822 17.649 143.256 17.649C143.784 17.649 144.252 17.736 144.66 17.91C145.074 18.078 145.419 18.318 145.695 18.63C145.977 18.942 146.19 19.314 146.334 19.746C146.484 20.172 146.559 20.646 146.559 21.168V27H145.695C145.509 27 145.368 26.973 145.272 26.919C145.176 26.859 145.095 26.742 145.029 26.568L144.84 25.821C144.606 26.031 144.375 26.22 144.147 26.388C143.919 26.55 143.682 26.688 143.436 26.802C143.196 26.916 142.935 27 142.653 27.054C142.377 27.114 142.071 27.144 141.735 27.144C141.363 27.144 141.015 27.093 140.691 26.991C140.373 26.889 140.097 26.736 139.863 26.532C139.629 26.322 139.443 26.064 139.305 25.758C139.173 25.452 139.107 25.092 139.107 24.678C139.107 24.324 139.2 23.979 139.386 23.643C139.578 23.307 139.89 23.007 140.322 22.743C140.76 22.473 141.333 22.251 142.041 22.077C142.755 21.903 143.634 21.804 144.678 21.78V21.168C144.678 20.508 144.537 20.016 144.255 19.692C143.973 19.368 143.559 19.206 143.013 19.206C142.641 19.206 142.329 19.254 142.077 19.35C141.825 19.44 141.606 19.539 141.42 19.647C141.234 19.755 141.069 19.857 140.925 19.953C140.781 20.043 140.628 20.088 140.466 20.088C140.334 20.088 140.22 20.055 140.124 19.989C140.034 19.917 139.959 19.83 139.899 19.728L139.548 19.098ZM152.101 22.329C152.701 22.329 153.151 22.176 153.451 21.87C153.751 21.564 153.901 21.165 153.901 20.673C153.901 20.169 153.751 19.77 153.451 19.476C153.151 19.182 152.701 19.035 152.101 19.035C151.507 19.035 151.057 19.182 150.751 19.476C150.451 19.77 150.301 20.169 150.301 20.673C150.301 20.913 150.34 21.135 150.418 21.339C150.496 21.543 150.61 21.72 150.76 21.87C150.91 22.014 151.096 22.128 151.318 22.212C151.546 22.29 151.807 22.329 152.101 22.329ZM154.792 27.45C154.792 27.246 154.732 27.084 154.612 26.964C154.498 26.838 154.342 26.742 154.144 26.676C153.946 26.604 153.715 26.553 153.451 26.523C153.187 26.487 152.905 26.463 152.605 26.451C152.311 26.433 152.008 26.418 151.696 26.406C151.39 26.388 151.093 26.358 150.805 26.316C150.517 26.466 150.28 26.646 150.094 26.856C149.914 27.066 149.824 27.309 149.824 27.585C149.824 27.765 149.869 27.933 149.959 28.089C150.055 28.245 150.199 28.38 150.391 28.494C150.589 28.608 150.838 28.698 151.138 28.764C151.444 28.83 151.81 28.863 152.236 28.863C153.088 28.863 153.727 28.731 154.153 28.467C154.579 28.203 154.792 27.864 154.792 27.45ZM156.736 18.153V18.873C156.736 19.113 156.592 19.26 156.304 19.314L155.386 19.467C155.542 19.815 155.62 20.202 155.62 20.628C155.62 21.078 155.53 21.486 155.35 21.852C155.176 22.218 154.933 22.53 154.621 22.788C154.309 23.046 153.937 23.244 153.505 23.382C153.073 23.52 152.605 23.589 152.101 23.589C151.909 23.589 151.72 23.58 151.534 23.562C151.354 23.538 151.177 23.508 151.003 23.472C150.829 23.574 150.7 23.682 150.616 23.796C150.532 23.91 150.49 24.027 150.49 24.147C150.49 24.345 150.577 24.492 150.751 24.588C150.925 24.684 151.153 24.753 151.435 24.795C151.723 24.837 152.05 24.864 152.416 24.876C152.782 24.888 153.154 24.909 153.532 24.939C153.91 24.969 154.282 25.02 154.648 25.092C155.014 25.158 155.338 25.272 155.62 25.434C155.908 25.59 156.139 25.803 156.313 26.073C156.487 26.343 156.574 26.694 156.574 27.126C156.574 27.522 156.475 27.909 156.277 28.287C156.079 28.665 155.791 29.001 155.413 29.295C155.041 29.589 154.585 29.823 154.045 29.997C153.505 30.177 152.89 30.267 152.2 30.267C151.516 30.267 150.919 30.201 150.409 30.069C149.905 29.937 149.482 29.757 149.14 29.529C148.804 29.307 148.552 29.049 148.384 28.755C148.222 28.461 148.141 28.155 148.141 27.837C148.141 27.405 148.276 27.036 148.546 26.73C148.822 26.424 149.194 26.184 149.662 26.01C149.41 25.89 149.206 25.725 149.05 25.515C148.9 25.305 148.825 25.029 148.825 24.687C148.825 24.417 148.924 24.135 149.122 23.841C149.32 23.547 149.617 23.298 150.013 23.094C149.557 22.842 149.197 22.509 148.933 22.095C148.669 21.675 148.537 21.186 148.537 20.628C148.537 20.172 148.624 19.761 148.798 19.395C148.978 19.029 149.227 18.717 149.545 18.459C149.863 18.201 150.238 18.003 150.67 17.865C151.108 17.727 151.585 17.658 152.101 17.658C152.893 17.658 153.583 17.823 154.171 18.153H156.736ZM164.128 21.375C164.128 21.051 164.08 20.751 163.984 20.475C163.894 20.193 163.759 19.95 163.579 19.746C163.399 19.536 163.174 19.374 162.904 19.26C162.64 19.14 162.334 19.08 161.986 19.08C161.284 19.08 160.732 19.281 160.33 19.683C159.928 20.085 159.673 20.649 159.565 21.375H164.128ZM159.511 22.563C159.535 23.085 159.616 23.538 159.754 23.922C159.892 24.3 160.075 24.615 160.303 24.867C160.537 25.119 160.813 25.308 161.131 25.434C161.455 25.554 161.815 25.614 162.211 25.614C162.589 25.614 162.916 25.572 163.192 25.488C163.468 25.398 163.708 25.302 163.912 25.2C164.116 25.092 164.29 24.996 164.434 24.912C164.578 24.822 164.71 24.777 164.83 24.777C164.986 24.777 165.106 24.837 165.19 24.957L165.739 25.668C165.511 25.938 165.253 26.166 164.965 26.352C164.677 26.538 164.371 26.691 164.047 26.811C163.723 26.925 163.39 27.006 163.048 27.054C162.706 27.108 162.373 27.135 162.049 27.135C161.413 27.135 160.822 27.03 160.276 26.82C159.736 26.604 159.265 26.289 158.863 25.875C158.467 25.461 158.155 24.948 157.927 24.336C157.705 23.724 157.594 23.019 157.594 22.221C157.594 21.585 157.693 20.991 157.891 20.439C158.095 19.887 158.383 19.407 158.755 18.999C159.133 18.591 159.589 18.27 160.123 18.036C160.663 17.796 161.272 17.676 161.95 17.676C162.514 17.676 163.036 17.769 163.516 17.955C163.996 18.135 164.41 18.402 164.758 18.756C165.106 19.11 165.376 19.545 165.568 20.061C165.766 20.571 165.865 21.153 165.865 21.807C165.865 22.107 165.832 22.308 165.766 22.41C165.7 22.512 165.58 22.563 165.406 22.563H159.511Z" fill="#101828"/>
</svg>
