<svg width="127" height="40" viewBox="0 0 127 40" fill="none" xmlns="http://www.w3.org/2000/svg">
<circle cx="20" cy="20" r="20" fill="white"/>
<path fill-rule="evenodd" clip-rule="evenodd" d="M27.0905 8.09082L28.3334 11.4692L27.751 11.6813C26.0363 12.3056 24.5564 13.4366 23.51 14.9209C22.4639 16.4048 21.9014 18.1708 21.8974 19.9811C21.9008 21.7916 22.463 23.5579 23.5088 25.0421C24.5548 26.5268 26.0346 27.6581 27.7492 28.2829L28.331 28.4948L27.0909 31.8735L26.512 31.6627C24.9635 31.099 23.5419 30.2372 22.329 29.1267C21.4145 28.2895 20.6321 27.3233 20.006 26.2608C19.3796 27.3318 18.5947 28.3058 17.6759 29.1495C16.4589 30.2668 15.0311 31.1332 13.4752 31.6988L12.8963 31.9092L11.6577 28.5306L12.2393 28.3187C13.9539 27.6943 15.4338 26.5633 16.4801 25.079C17.5262 23.5951 18.0888 21.8292 18.0929 20.0189C18.0891 18.2086 17.5266 16.4425 16.4805 14.9586C15.4341 13.4742 13.9541 12.3433 12.2393 11.7191L11.6576 11.5073L12.8963 8.12864L13.4752 8.33902C15.0241 8.90193 16.4462 9.76311 17.6596 10.8734C18.5745 11.7105 19.3572 12.6767 19.9835 13.7393C20.6097 12.6686 21.3944 11.6948 22.3129 10.8512C23.5294 9.73398 24.9567 8.86739 26.512 8.30133L27.0905 8.09082Z" fill="#101828"/>
<path d="M59.63 25.299L59.621 27H51.539V14.04H59.621V15.741H53.654V19.647H58.424V21.294H53.654V25.299H59.63ZM69.2805 17.82L65.5905 27H63.8445L60.1545 17.82H61.7475C61.8975 17.82 62.0205 17.859 62.1165 17.937C62.2185 18.009 62.2845 18.096 62.3145 18.198L64.3485 23.544C64.4325 23.796 64.5075 24.045 64.5735 24.291C64.6395 24.537 64.6965 24.786 64.7445 25.038C64.7925 24.786 64.8495 24.54 64.9155 24.3C64.9875 24.054 65.0655 23.802 65.1495 23.544L67.2195 18.198C67.2555 18.09 67.3215 18 67.4175 17.928C67.5135 17.856 67.6305 17.82 67.7685 17.82H69.2805ZM76.3602 21.375C76.3602 21.051 76.3122 20.751 76.2162 20.475C76.1262 20.193 75.9912 19.95 75.8112 19.746C75.6312 19.536 75.4062 19.374 75.1362 19.26C74.8722 19.14 74.5662 19.08 74.2182 19.08C73.5162 19.08 72.9642 19.281 72.5622 19.683C72.1602 20.085 71.9052 20.649 71.7972 21.375H76.3602ZM71.7432 22.563C71.7672 23.085 71.8482 23.538 71.9862 23.922C72.1242 24.3 72.3072 24.615 72.5352 24.867C72.7692 25.119 73.0452 25.308 73.3632 25.434C73.6872 25.554 74.0472 25.614 74.4432 25.614C74.8212 25.614 75.1482 25.572 75.4242 25.488C75.7002 25.398 75.9402 25.302 76.1442 25.2C76.3482 25.092 76.5222 24.996 76.6662 24.912C76.8102 24.822 76.9422 24.777 77.0622 24.777C77.2182 24.777 77.3382 24.837 77.4222 24.957L77.9712 25.668C77.7432 25.938 77.4852 26.166 77.1972 26.352C76.9092 26.538 76.6032 26.691 76.2792 26.811C75.9552 26.925 75.6222 27.006 75.2802 27.054C74.9382 27.108 74.6052 27.135 74.2812 27.135C73.6452 27.135 73.0542 27.03 72.5082 26.82C71.9682 26.604 71.4972 26.289 71.0952 25.875C70.6992 25.461 70.3872 24.948 70.1592 24.336C69.9372 23.724 69.8262 23.019 69.8262 22.221C69.8262 21.585 69.9252 20.991 70.1232 20.439C70.3272 19.887 70.6152 19.407 70.9872 18.999C71.3652 18.591 71.8212 18.27 72.3552 18.036C72.8952 17.796 73.5042 17.676 74.1822 17.676C74.7462 17.676 75.2682 17.769 75.7482 17.955C76.2282 18.135 76.6422 18.402 76.9902 18.756C77.3382 19.11 77.6082 19.545 77.8002 20.061C77.9982 20.571 78.0972 21.153 78.0972 21.807C78.0972 22.107 78.0642 22.308 77.9982 22.41C77.9322 22.512 77.8122 22.563 77.6382 22.563H71.7432ZM81.7107 19.035C81.9087 18.831 82.1127 18.648 82.3227 18.486C82.5387 18.318 82.7667 18.174 83.0067 18.054C83.2467 17.934 83.5017 17.841 83.7717 17.775C84.0417 17.709 84.3357 17.676 84.6537 17.676C85.1577 17.676 85.5987 17.76 85.9767 17.928C86.3607 18.096 86.6817 18.333 86.9397 18.639C87.2037 18.945 87.4017 19.314 87.5337 19.746C87.6657 20.172 87.7317 20.643 87.7317 21.159V27H85.8057V21.159C85.8057 20.541 85.6617 20.061 85.3737 19.719C85.0917 19.377 84.6597 19.206 84.0777 19.206C83.6457 19.206 83.2437 19.305 82.8717 19.503C82.5057 19.701 82.1607 19.971 81.8367 20.313V27H79.9017V17.82H81.0717C81.3357 17.82 81.5037 17.943 81.5757 18.189L81.7107 19.035ZM92.8115 27.144C92.0495 27.144 91.4615 26.931 91.0475 26.505C90.6395 26.073 90.4355 25.467 90.4355 24.687V19.341H89.4275C89.3195 19.341 89.2265 19.308 89.1485 19.242C89.0705 19.17 89.0315 19.065 89.0315 18.927V18.144L90.5165 17.928L90.9395 15.273C90.9695 15.171 91.0205 15.09 91.0925 15.03C91.1645 14.964 91.2605 14.931 91.3805 14.931H92.3705V17.946H94.9175V19.341H92.3705V24.552C92.3705 24.882 92.4515 25.134 92.6135 25.308C92.7755 25.482 92.9915 25.569 93.2615 25.569C93.4115 25.569 93.5405 25.551 93.6485 25.515C93.7565 25.473 93.8495 25.431 93.9275 25.389C94.0055 25.341 94.0715 25.299 94.1255 25.263C94.1855 25.221 94.2425 25.2 94.2965 25.2C94.4045 25.2 94.4915 25.26 94.5575 25.38L95.1335 26.325C94.8335 26.589 94.4795 26.793 94.0715 26.937C93.6635 27.075 93.2435 27.144 92.8115 27.144ZM105.803 24.111C105.917 24.111 106.016 24.156 106.1 24.246L106.937 25.155C106.409 25.791 105.761 26.283 104.993 26.631C104.225 26.973 103.307 27.144 102.239 27.144C101.291 27.144 100.433 26.982 99.6647 26.658C98.9027 26.328 98.2517 25.872 97.7117 25.29C97.1717 24.702 96.7547 24.003 96.4607 23.193C96.1727 22.383 96.0287 21.492 96.0287 20.52C96.0287 19.548 96.1817 18.657 96.4877 17.847C96.7997 17.031 97.2347 16.332 97.7927 15.75C98.3567 15.162 99.0287 14.706 99.8087 14.382C100.595 14.058 101.459 13.896 102.401 13.896C103.337 13.896 104.162 14.049 104.876 14.355C105.596 14.655 106.22 15.057 106.748 15.561L106.055 16.542C106.007 16.608 105.95 16.665 105.884 16.713C105.818 16.761 105.728 16.785 105.614 16.785C105.494 16.785 105.356 16.731 105.2 16.623C105.05 16.509 104.855 16.386 104.615 16.254C104.381 16.116 104.084 15.993 103.724 15.885C103.37 15.771 102.926 15.714 102.392 15.714C101.774 15.714 101.207 15.822 100.691 16.038C100.175 16.254 99.7307 16.569 99.3587 16.983C98.9867 17.397 98.6957 17.901 98.4857 18.495C98.2817 19.089 98.1797 19.764 98.1797 20.52C98.1797 21.282 98.2877 21.963 98.5037 22.563C98.7197 23.157 99.0167 23.661 99.3947 24.075C99.7727 24.483 100.217 24.795 100.727 25.011C101.237 25.227 101.786 25.335 102.374 25.335C102.734 25.335 103.055 25.317 103.337 25.281C103.625 25.239 103.889 25.176 104.129 25.092C104.369 25.002 104.594 24.891 104.804 24.759C105.02 24.627 105.233 24.465 105.443 24.273C105.563 24.165 105.683 24.111 105.803 24.111ZM119.484 14.04V27H117.378V21.231H110.871V27H108.756V14.04H110.871V19.71H117.378V14.04H119.484ZM124.687 27H122.572V14.04H124.687V27Z" fill="white"/>
</svg>
