<svg width="160" height="160" viewBox="0 0 160 160" fill="none" xmlns="http://www.w3.org/2000/svg">
<rect width="160" height="160" fill="#EBE9FE"/>
<path fill-rule="evenodd" clip-rule="evenodd" d="M80 114C98.7777 114 114 98.7777 114 80C114 61.2223 98.7777 46 80 46C61.2223 46 46 61.2223 46 80C46 98.7777 61.2223 114 80 114ZM80 140C113.137 140 140 113.137 140 80C140 46.8629 113.137 20 80 20C46.8629 20 20 46.8629 20 80C20 113.137 46.8629 140 80 140Z" fill="#6938EF"/>
<path d="M80.6863 81.3137C86.9347 75.0653 97.0653 75.0653 103.314 81.3137L134.426 112.426C140.675 118.675 140.675 128.805 134.426 135.054C128.178 141.302 118.047 141.302 111.799 135.054L80.6863 103.941C74.4379 97.6927 74.4379 87.5621 80.6863 81.3137Z" fill="#F670C7"/>
<path d="M89.4226 112.677L109.183 132.437C118.66 127.152 126.557 119.371 131.983 109.983L112.385 90.3849C108.942 101.129 100.302 109.546 89.4226 112.677Z" fill="#6519BA"/>
</svg>
