<svg width="36" height="36" viewBox="0 0 36 36" fill="none" xmlns="http://www.w3.org/2000/svg">
<g style="mix-blend-mode:multiply">
<rect x="2" y="2" width="32" height="32" rx="16" fill="#FBE6ED"/>
<path d="M11.3333 19.6667L17.7615 22.8808C17.8489 22.9245 17.8927 22.9464 17.9385 22.955C17.9792 22.9626 18.0208 22.9626 18.0615 22.955C18.1073 22.9464 18.1511 22.9245 18.2385 22.8808L24.6667 19.6667M11.3333 16.3334L17.7615 13.1193C17.8489 13.0756 17.8927 13.0537 17.9385 13.0451C17.9792 13.0375 18.0208 13.0375 18.0615 13.0451C18.1073 13.0537 18.1511 13.0756 18.2385 13.1193L24.6667 16.3334L18.2385 19.5474C18.1511 19.5912 18.1073 19.613 18.0615 19.6216C18.0208 19.6293 17.9792 19.6293 17.9385 19.6216C17.8927 19.613 17.8489 19.5912 17.7615 19.5474L11.3333 16.3334Z" stroke="#E83C70" stroke-width="1.33333" stroke-linecap="round" stroke-linejoin="round"/>
<rect x="2" y="2" width="32" height="32" rx="16" stroke="#FFF0F5" stroke-width="4"/>
</g>
</svg>
