<svg width="46" height="46" viewBox="0 0 46 46" fill="none" xmlns="http://www.w3.org/2000/svg">
<g style="mix-blend-mode:multiply">
<rect x="3" y="3" width="40" height="40" rx="20" fill="#FBE6ED"/>
<path d="M14.6667 25.0833L22.7019 29.1009C22.8112 29.1556 22.8658 29.1829 22.9232 29.1937C22.9739 29.2032 23.0261 29.2032 23.0768 29.1937C23.1342 29.1829 23.1888 29.1556 23.2981 29.1009L31.3333 25.0833M14.6667 20.9167L22.7019 16.8991C22.8112 16.8444 22.8658 16.8171 22.9232 16.8063C22.9739 16.7968 23.0261 16.7968 23.0768 16.8063C23.1342 16.8171 23.1888 16.8444 23.2981 16.8991L31.3333 20.9167L23.2981 24.9343C23.1888 24.9889 23.1342 25.0163 23.0768 25.027C23.0261 25.0365 22.9739 25.0365 22.9232 25.027C22.8658 25.0163 22.8112 24.9889 22.7019 24.9343L14.6667 20.9167Z" stroke="#E83C70" stroke-width="1.66667" stroke-linecap="round" stroke-linejoin="round"/>
<rect x="3" y="3" width="40" height="40" rx="20" stroke="#FFF0F5" stroke-width="6"/>
</g>
</svg>
