<svg width="36" height="36" viewBox="0 0 36 36" fill="none" xmlns="http://www.w3.org/2000/svg">
<g style="mix-blend-mode:multiply">
<rect x="2" y="2" width="32" height="32" rx="16" fill="#F2F4F7"/>
<path d="M11.3333 19.6666L17.7615 22.8807C17.8489 22.9244 17.8927 22.9463 17.9385 22.9549C17.9792 22.9625 18.0208 22.9625 18.0615 22.9549C18.1073 22.9463 18.1511 22.9244 18.2385 22.8807L24.6667 19.6666M11.3333 16.3333L17.7615 13.1192C17.8489 13.0755 17.8927 13.0536 17.9385 13.045C17.9792 13.0374 18.0208 13.0374 18.0615 13.045C18.1073 13.0536 18.1511 13.0755 18.2385 13.1192L24.6667 16.3333L18.2385 19.5474C18.1511 19.5911 18.1073 19.613 18.0615 19.6216C18.0208 19.6292 17.9792 19.6292 17.9385 19.6216C17.8927 19.613 17.8489 19.5911 17.7615 19.5474L11.3333 16.3333Z" stroke="#D0D5DD" stroke-width="1.33333" stroke-linecap="round" stroke-linejoin="round"/>
<rect x="2" y="2" width="32" height="32" rx="16" stroke="#F9FAFB" stroke-width="4"/>
</g>
</svg>
