<svg width="46" height="46" viewBox="0 0 46 46" fill="none" xmlns="http://www.w3.org/2000/svg">
<g style="mix-blend-mode:multiply">
<rect x="3" y="3" width="40" height="40" rx="20" fill="#FBE6ED"/>
<g clip-path="url(#clip0_7023_3653)">
<path d="M14.6667 23L22.7019 27.0176C22.8113 27.0722 22.8659 27.0996 22.9232 27.1103C22.974 27.1198 23.0261 27.1198 23.0769 27.1103C23.1342 27.0996 23.1889 27.0722 23.2982 27.0176L31.3334 23M14.6667 27.1666L22.7019 31.1842C22.8113 31.2389 22.8659 31.2662 22.9232 31.277C22.974 31.2865 23.0261 31.2865 23.0769 31.277C23.1342 31.2662 23.1889 31.2389 23.2982 31.1842L31.3334 27.1666M14.6667 18.8333L22.7019 14.8157C22.8113 14.7611 22.8659 14.7337 22.9232 14.723C22.974 14.7134 23.0261 14.7134 23.0769 14.723C23.1342 14.7337 23.1889 14.7611 23.2982 14.8157L31.3334 18.8333L23.2982 22.8509C23.1889 22.9056 23.1342 22.9329 23.0769 22.9436C23.0261 22.9532 22.974 22.9532 22.9232 22.9436C22.8659 22.9329 22.8113 22.9056 22.7019 22.8509L14.6667 18.8333Z" stroke="#E83C70" stroke-width="1.66667" stroke-linecap="round" stroke-linejoin="round"/>
</g>
<rect x="3" y="3" width="40" height="40" rx="20" stroke="#FFF0F5" stroke-width="6"/>
</g>
<defs>
<clipPath id="clip0_7023_3653">
<rect width="20" height="20" fill="white" transform="translate(13 13)"/>
</clipPath>
</defs>
</svg>
