<svg width="21" height="20" viewBox="0 0 21 20" fill="none" xmlns="http://www.w3.org/2000/svg">
<path d="M10.4998 18.3334C15.1022 18.3334 18.8332 14.6025 18.8332 10.0001C18.8332 5.39771 15.1022 1.66675 10.4998 1.66675C5.89746 1.66675 2.1665 5.39771 2.1665 10.0001C2.1665 14.6025 5.89746 18.3334 10.4998 18.3334Z" stroke="#344054" stroke-width="1.66667" stroke-linecap="round" stroke-linejoin="round"/>
<path d="M8.4165 7.47119C8.4165 7.07345 8.4165 6.87459 8.49962 6.76356C8.57206 6.66681 8.68293 6.60628 8.80349 6.59767C8.94182 6.58779 9.10911 6.69533 9.44368 6.91041L13.3775 9.4393C13.6678 9.62593 13.813 9.71925 13.8631 9.83791C13.9069 9.94159 13.9069 10.0586 13.8631 10.1623C13.813 10.2809 13.6678 10.3742 13.3775 10.5609L9.44368 13.0898C9.10911 13.3048 8.94182 13.4124 8.80349 13.4025C8.68293 13.3939 8.57206 13.3334 8.49962 13.2366C8.4165 13.1256 8.4165 12.9267 8.4165 12.529V7.47119Z" stroke="#344054" stroke-width="1.66667" stroke-linecap="round" stroke-linejoin="round"/>
</svg>
