<svg width="24" height="24" viewBox="0 0 24 24" fill="none" xmlns="http://www.w3.org/2000/svg">
<path d="M24 11.9998C24 18.6274 18.6277 23.9998 12 23.9998C5.37231 23.9998 0 18.6274 0 11.9998C0 5.37206 5.37231 -0.000244141 12 -0.000244141C12.3138 -0.000244141 12.6461 0.0182253 12.96 0.0366868C18.8123 0.498225 23.5016 5.18744 23.9631 11.0397C23.9816 11.3536 24 11.6859 24 11.9998Z" fill="#EA5284"/>
<g filter="url(#filter0_d_5547_162433)">
<path fill-rule="evenodd" clip-rule="evenodd" d="M11.9936 8.48109C11.6696 7.94475 11.2727 7.45528 10.8133 7.0275C10.1632 6.42203 9.40095 5.95205 8.57018 5.64476L8.19179 5.50479L7.48944 7.45482L7.8611 7.59254C8.75541 7.92394 9.52843 8.52469 10.0755 9.31457C10.6224 10.1043 10.917 11.0449 10.919 12.0097C10.9169 12.9744 10.6222 13.915 10.0753 14.7047C9.52826 15.4946 8.7553 16.0954 7.86105 16.4269L7.48946 16.5647L8.1918 18.5147L8.57021 18.3747C9.4047 18.0659 10.1701 17.5931 10.8221 16.9838C11.2836 16.5525 11.6818 16.0589 12.0061 15.518C12.33 16.0543 12.7268 16.5437 13.1859 16.9716C13.8358 17.5772 14.5977 18.0475 15.4282 18.3552L15.8066 18.4954L16.5098 16.5454L16.1382 16.4076C15.2439 16.0759 14.471 15.4749 13.9241 14.6849C13.3774 13.895 13.083 12.9543 13.0811 11.9894C13.0832 11.0246 13.3778 10.084 13.9248 9.29424C14.4718 8.50437 15.2448 7.90359 16.1391 7.57214L16.5111 7.43425L15.8064 5.48438L15.4283 5.62443C14.5941 5.93344 13.8291 6.40637 13.1773 7.01565C12.716 7.4469 12.3178 7.9404 11.9936 8.48109Z" fill="white"/>
</g>
<defs>
<filter id="filter0_d_5547_162433" x="2.84475" y="0.839686" width="18.311" height="22.3197" filterUnits="userSpaceOnUse" color-interpolation-filters="sRGB">
<feFlood flood-opacity="0" result="BackgroundImageFix"/>
<feColorMatrix in="SourceAlpha" type="matrix" values="0 0 0 0 0 0 0 0 0 0 0 0 0 0 0 0 0 0 127 0" result="hardAlpha"/>
<feOffset/>
<feGaussianBlur stdDeviation="2.32234"/>
<feColorMatrix type="matrix" values="0 0 0 0 0.917647 0 0 0 0 0.321569 0 0 0 0 0.517647 0 0 0 1 0"/>
<feBlend mode="normal" in2="BackgroundImageFix" result="effect1_dropShadow_5547_162433"/>
<feBlend mode="normal" in="SourceGraphic" in2="effect1_dropShadow_5547_162433" result="shape"/>
</filter>
</defs>
</svg>
