<svg width="46" height="46" viewBox="0 0 46 46" fill="none" xmlns="http://www.w3.org/2000/svg">
<g style="mix-blend-mode:multiply">
<rect x="3" y="3" width="40" height="40" rx="20" fill="#FBE6ED"/>
<g clip-path="url(#clip0_7023_3173)">
<path d="M23.0001 20.5L16.3866 24.7987C15.8134 25.1713 15.5268 25.3576 15.4276 25.5938C15.3408 25.8003 15.3408 26.033 15.4276 26.2394M23.0001 20.5L29.6135 24.7987C30.1867 25.1713 30.4733 25.3576 30.5726 25.5938C30.6594 25.8003 30.6594 26.033 30.5726 26.2394M23.0001 20.5V15.0833M23.0001 25.5L16.3866 21.2012C15.8134 20.8286 15.5268 20.6424 15.4276 20.4061C15.3408 20.1996 15.3408 19.967 15.4276 19.7605M23.0001 25.5L29.6135 21.2012C30.1867 20.8286 30.4733 20.6424 30.5726 20.4061C30.6594 20.1996 30.6594 19.967 30.5726 19.7605M23.0001 25.5V30.9166M30.7267 26.311L23.7267 30.861C23.4637 31.0319 23.3322 31.1174 23.1905 31.1507C23.0653 31.1801 22.9349 31.1801 22.8097 31.1507C22.668 31.1174 22.5364 31.0319 22.2734 30.861L15.2734 26.311C15.0518 26.1669 14.9409 26.0949 14.8606 25.9988C14.7895 25.9137 14.7361 25.8153 14.7036 25.7093C14.6667 25.5896 14.6667 25.4574 14.6667 25.1931V20.8069C14.6667 20.5425 14.6667 20.4103 14.7036 20.2906C14.7361 20.1846 14.7895 20.0863 14.8606 20.0012C14.9409 19.9051 15.0518 19.833 15.2734 19.689L22.2734 15.139C22.5364 14.968 22.668 14.8825 22.8097 14.8493C22.9349 14.8199 23.0653 14.8199 23.1905 14.8493C23.3322 14.8825 23.4637 14.968 23.7267 15.139L30.7267 19.689C30.9484 19.833 31.0592 19.9051 31.1395 20.0012C31.2106 20.0863 31.264 20.1846 31.2966 20.2906C31.3334 20.4103 31.3334 20.5425 31.3334 20.8069V25.1931C31.3334 25.4574 31.3334 25.5896 31.2966 25.7093C31.264 25.8153 31.2106 25.9137 31.1395 25.9988C31.0592 26.0949 30.9484 26.1669 30.7267 26.311Z" stroke="#E83C70" stroke-width="1.66667" stroke-linecap="round" stroke-linejoin="round"/>
</g>
<rect x="3" y="3" width="40" height="40" rx="20" stroke="#FFF0F5" stroke-width="6"/>
</g>
<defs>
<clipPath id="clip0_7023_3173">
<rect width="20" height="20" fill="white" transform="translate(13 13)"/>
</clipPath>
</defs>
</svg>
