<svg width="36" height="36" viewBox="0 0 36 36" fill="none" xmlns="http://www.w3.org/2000/svg">
<g style="mix-blend-mode:multiply">
<rect x="2" y="2" width="32" height="32" rx="16" fill="#FBE6ED"/>
<g clip-path="url(#clip0_7023_4253)">
<path d="M17.9999 16L12.7092 19.439C12.2506 19.7371 12.0213 19.8861 11.9419 20.0751C11.8725 20.2403 11.8725 20.4264 11.9419 20.5916M17.9999 16L23.2907 19.439C23.7492 19.7371 23.9785 19.8861 24.0579 20.0751C24.1273 20.2403 24.1273 20.4264 24.0579 20.5916M17.9999 16V11.6667M17.9999 20L12.7092 16.561C12.2506 16.2629 12.0213 16.1139 11.9419 15.9249C11.8725 15.7597 11.8725 15.5736 11.9419 15.4084M17.9999 20L23.2907 16.561C23.7492 16.2629 23.9785 16.1139 24.0579 15.9249C24.1273 15.7597 24.1273 15.5736 24.0579 15.4084M17.9999 20V24.3333M24.1812 20.6488L18.5812 24.2888C18.3708 24.4256 18.2656 24.494 18.1523 24.5206C18.0521 24.5441 17.9478 24.5441 17.8476 24.5206C17.7342 24.494 17.629 24.4256 17.4186 24.2888L11.8186 20.6488C11.6413 20.5335 11.5526 20.4759 11.4884 20.399C11.4315 20.331 11.3888 20.2523 11.3627 20.1675C11.3333 20.0717 11.3333 19.966 11.3333 19.7545V16.2455C11.3333 16.034 11.3333 15.9283 11.3627 15.8325C11.3888 15.7477 11.4315 15.669 11.4884 15.601C11.5526 15.5241 11.6413 15.4665 11.8186 15.3512L17.4186 11.7112C17.629 11.5744 17.7342 11.506 17.8476 11.4794C17.9478 11.4559 18.0521 11.4559 18.1523 11.4794C18.2656 11.506 18.3708 11.5744 18.5812 11.7112L24.1812 15.3512C24.3586 15.4665 24.4472 15.5241 24.5115 15.601C24.5684 15.669 24.6111 15.7477 24.6371 15.8325C24.6666 15.9283 24.6666 16.034 24.6666 16.2455V19.7545C24.6666 19.966 24.6666 20.0717 24.6371 20.1675C24.6111 20.2523 24.5684 20.331 24.5115 20.399C24.4472 20.4759 24.3586 20.5335 24.1812 20.6488Z" stroke="#E83C70" stroke-width="1.33333" stroke-linecap="round" stroke-linejoin="round"/>
</g>
<rect x="2" y="2" width="32" height="32" rx="16" stroke="#FFF0F5" stroke-width="4"/>
</g>
<defs>
<clipPath id="clip0_7023_4253">
<rect width="16" height="16" fill="white" transform="translate(10 10)"/>
</clipPath>
</defs>
</svg>
