<svg width="46" height="46" viewBox="0 0 46 46" fill="none" xmlns="http://www.w3.org/2000/svg">
<g style="mix-blend-mode:multiply">
<rect x="3" y="3" width="40" height="40" rx="20" fill="#FBE6ED"/>
<path d="M23.833 22.1666L15.9164 30.0833M24.6817 15.9486C25.6967 16.6222 26.6723 17.4162 27.584 18.3278C28.5035 19.2474 29.3034 20.2319 29.9806 21.2564M20.7122 19.58L18.3164 18.7815C18.0405 18.6895 17.7367 18.748 17.5146 18.9359L15.1337 20.9505C14.6462 21.363 14.7847 22.1479 15.3839 22.3687L17.6399 23.1998M22.7339 28.2937L23.5651 30.5497C23.7858 31.1488 24.5707 31.2873 24.9832 30.7999L26.9978 28.4189C27.1857 28.1969 27.2442 27.893 27.1522 27.6171L26.3537 25.2214M29.1235 14.8922L25.0348 15.5736C24.5933 15.6472 24.1883 15.8642 23.8826 16.1911L18.3717 22.0821C16.9432 23.609 16.9829 25.9937 18.4615 27.4722C19.94 28.9508 22.3247 28.9905 23.8516 27.562L29.7426 22.0511C30.0695 21.7454 30.2865 21.3404 30.3601 20.8989L31.0415 16.8102C31.2295 15.6821 30.2516 14.7042 29.1235 14.8922Z" stroke="#E83C70" stroke-width="1.66667" stroke-linecap="round" stroke-linejoin="round"/>
<rect x="3" y="3" width="40" height="40" rx="20" stroke="#FFF0F5" stroke-width="6"/>
</g>
</svg>
