<svg width="36" height="36" viewBox="0 0 36 36" fill="none" xmlns="http://www.w3.org/2000/svg">
<g style="mix-blend-mode:multiply">
<rect x="2" y="2" width="32" height="32" rx="16" fill="#FBE6ED"/>
<g clip-path="url(#clip0_7023_4829)">
<path d="M18.6664 17.3333L12.3331 23.6666M19.3454 12.3589C20.1574 12.8977 20.9379 13.5329 21.6672 14.2623C22.4028 14.9979 23.0427 15.7855 23.5845 16.6051M16.1697 15.264L14.2532 14.6252C14.0324 14.5516 13.7893 14.5984 13.6117 14.7487L11.7069 16.3604C11.317 16.6904 11.4278 17.3183 11.9071 17.4949L13.7119 18.1598M17.7871 22.235L18.452 24.0398C18.6286 24.5191 19.2566 24.6299 19.5865 24.2399L21.1983 22.3351C21.3486 22.1575 21.3954 21.9144 21.3218 21.6937L20.6829 19.7771M22.8988 11.5138L19.6278 12.0589C19.2746 12.1178 18.9507 12.2914 18.706 12.5529L14.2973 17.2656C13.1546 18.4872 13.1864 20.3949 14.3692 21.5778C15.552 22.7606 17.4597 22.7924 18.6813 21.6496L23.3941 17.2409C23.6556 16.9963 23.8292 16.6723 23.888 16.3191L24.4332 13.0481C24.5836 12.1457 23.8012 11.3634 22.8988 11.5138Z" stroke="#E83C70" stroke-width="1.33333" stroke-linecap="round" stroke-linejoin="round"/>
</g>
<rect x="2" y="2" width="32" height="32" rx="16" stroke="#FFF0F5" stroke-width="4"/>
</g>
<defs>
<clipPath id="clip0_7023_4829">
<rect width="16" height="16" fill="white" transform="translate(10 10)"/>
</clipPath>
</defs>
</svg>
