<svg width="46" height="46" viewBox="0 0 46 46" fill="none" xmlns="http://www.w3.org/2000/svg">
<g style="mix-blend-mode:multiply">
<rect x="3" y="3" width="40" height="40" rx="20" fill="#FBE6ED"/>
<path d="M23.8333 14.6667L16.4112 23.5732C16.1205 23.922 15.9752 24.0964 15.9729 24.2437C15.971 24.3718 16.0281 24.4936 16.1277 24.5741C16.2423 24.6667 16.4693 24.6667 16.9233 24.6667H23L22.1666 31.3334L29.5888 22.4268C29.8794 22.078 30.0248 21.9036 30.027 21.7563C30.0289 21.6283 29.9719 21.5064 29.8723 21.4259C29.7577 21.3334 29.5307 21.3334 29.0766 21.3334H23L23.8333 14.6667Z" stroke="#E83C70" stroke-width="1.66667" stroke-linecap="round" stroke-linejoin="round"/>
<rect x="3" y="3" width="40" height="40" rx="20" stroke="#FFF0F5" stroke-width="6"/>
</g>
</svg>
