<svg width="26" height="36" viewBox="0 0 26 36" fill="none" xmlns="http://www.w3.org/2000/svg">
<path d="M25.5261 17.768C25.5261 20.776 25.1981 23.384 24.5421 25.592C23.9021 27.8 23.0141 29.632 21.8781 31.088C20.7581 32.528 19.4301 33.6 17.8941 34.304C16.3741 35.008 14.7341 35.36 12.9741 35.36C11.2141 35.36 9.56613 35.008 8.03013 34.304C6.51013 33.6 5.19013 32.528 4.07013 31.088C2.95013 29.632 2.07013 27.8 1.43013 25.592C0.790125 23.384 0.470125 20.776 0.470125 17.768C0.470125 14.76 0.790125 12.152 1.43013 9.944C2.07013 7.72 2.95013 5.888 4.07013 4.448C5.19013 2.992 6.51013 1.912 8.03013 1.208C9.56613 0.503999 11.2141 0.151999 12.9741 0.151999C14.7341 0.151999 16.3741 0.503999 17.8941 1.208C19.4301 1.912 20.7581 2.992 21.8781 4.448C23.0141 5.888 23.9021 7.72 24.5421 9.944C25.1981 12.152 25.5261 14.76 25.5261 17.768ZM20.6781 17.768C20.6781 15.176 20.4621 13.008 20.0301 11.264C19.6141 9.52 19.0461 8.12 18.3261 7.064C17.6221 5.992 16.8061 5.232 15.8781 4.784C14.9501 4.336 13.9821 4.112 12.9741 4.112C11.9661 4.112 10.9981 4.336 10.0701 4.784C9.14213 5.232 8.31813 5.992 7.59813 7.064C6.89413 8.12 6.33413 9.52 5.91813 11.264C5.50213 13.008 5.29413 15.176 5.29413 17.768C5.29413 20.36 5.50213 22.528 5.91813 24.272C6.33413 26.016 6.89413 27.416 7.59813 28.472C8.31813 29.528 9.14213 30.28 10.0701 30.728C10.9981 31.176 11.9661 31.4 12.9741 31.4C13.9821 31.4 14.9501 31.176 15.8781 30.728C16.8061 30.28 17.6221 29.528 18.3261 28.472C19.0461 27.416 19.6141 26.016 20.0301 24.272C20.4621 22.528 20.6781 20.36 20.6781 17.768Z" fill="#E83C70"/>
</svg>
