<svg width="16" height="23" viewBox="0 0 16 23" fill="none" xmlns="http://www.w3.org/2000/svg">
<path d="M15.8288 11.23C15.8288 13.11 15.6238 14.74 15.2138 16.12C14.8138 17.5 14.2588 18.645 13.5488 19.555C12.8488 20.455 12.0188 21.125 11.0588 21.565C10.1088 22.005 9.08383 22.225 7.98383 22.225C6.88383 22.225 5.85383 22.005 4.89383 21.565C3.94383 21.125 3.11883 20.455 2.41883 19.555C1.71883 18.645 1.16883 17.5 0.768828 16.12C0.368828 14.74 0.168828 13.11 0.168828 11.23C0.168828 9.35 0.368828 7.72 0.768828 6.34C1.16883 4.95 1.71883 3.805 2.41883 2.905C3.11883 1.995 3.94383 1.32 4.89383 0.879998C5.85383 0.439999 6.88383 0.22 7.98383 0.22C9.08383 0.22 10.1088 0.439999 11.0588 0.879998C12.0188 1.32 12.8488 1.995 13.5488 2.905C14.2588 3.805 14.8138 4.95 15.2138 6.34C15.6238 7.72 15.8288 9.35 15.8288 11.23ZM12.7988 11.23C12.7988 9.61 12.6638 8.255 12.3938 7.165C12.1338 6.075 11.7788 5.2 11.3288 4.54C10.8888 3.87 10.3788 3.395 9.79883 3.115C9.21883 2.835 8.61383 2.695 7.98383 2.695C7.35383 2.695 6.74883 2.835 6.16883 3.115C5.58883 3.395 5.07383 3.87 4.62383 4.54C4.18383 5.2 3.83383 6.075 3.57383 7.165C3.31383 8.255 3.18383 9.61 3.18383 11.23C3.18383 12.85 3.31383 14.205 3.57383 15.295C3.83383 16.385 4.18383 17.26 4.62383 17.92C5.07383 18.58 5.58883 19.05 6.16883 19.33C6.74883 19.61 7.35383 19.75 7.98383 19.75C8.61383 19.75 9.21883 19.61 9.79883 19.33C10.3788 19.05 10.8888 18.58 11.3288 17.92C11.7788 17.26 12.1338 16.385 12.3938 15.295C12.6638 14.205 12.7988 12.85 12.7988 11.23Z" fill="#D0D5DD"/>
</svg>
