<svg width="20" height="28" viewBox="0 0 20 28" fill="none" xmlns="http://www.w3.org/2000/svg">
<path d="M19.3946 14.076C19.3946 16.332 19.1486 18.288 18.6566 19.944C18.1766 21.6 17.5106 22.974 16.6586 24.066C15.8186 25.146 14.8226 25.95 13.6706 26.478C12.5306 27.006 11.3006 27.27 9.98059 27.27C8.66059 27.27 7.42459 27.006 6.27259 26.478C5.13259 25.95 4.14259 25.146 3.30259 24.066C2.46259 22.974 1.80259 21.6 1.32259 19.944C0.842594 18.288 0.602594 16.332 0.602594 14.076C0.602594 11.82 0.842594 9.864 1.32259 8.208C1.80259 6.54 2.46259 5.166 3.30259 4.086C4.14259 2.994 5.13259 2.184 6.27259 1.656C7.42459 1.128 8.66059 0.864 9.98059 0.864C11.3006 0.864 12.5306 1.128 13.6706 1.656C14.8226 2.184 15.8186 2.994 16.6586 4.086C17.5106 5.166 18.1766 6.54 18.6566 8.208C19.1486 9.864 19.3946 11.82 19.3946 14.076ZM15.7586 14.076C15.7586 12.132 15.5966 10.506 15.2726 9.198C14.9606 7.89 14.5346 6.84 13.9946 6.048C13.4666 5.244 12.8546 4.674 12.1586 4.338C11.4626 4.002 10.7366 3.834 9.98059 3.834C9.22459 3.834 8.49859 4.002 7.80259 4.338C7.10659 4.674 6.48859 5.244 5.94859 6.048C5.42059 6.84 5.00059 7.89 4.68859 9.198C4.37659 10.506 4.22059 12.132 4.22059 14.076C4.22059 16.02 4.37659 17.646 4.68859 18.954C5.00059 20.262 5.42059 21.312 5.94859 22.104C6.48859 22.896 7.10659 23.46 7.80259 23.796C8.49859 24.132 9.22459 24.3 9.98059 24.3C10.7366 24.3 11.4626 24.132 12.1586 23.796C12.8546 23.46 13.4666 22.896 13.9946 22.104C14.5346 21.312 14.9606 20.262 15.2726 18.954C15.5966 17.646 15.7586 16.02 15.7586 14.076Z" fill="#E83C70"/>
</svg>
