<svg width="40" height="40" viewBox="0 0 40 40" fill="none" xmlns="http://www.w3.org/2000/svg">
<rect width="40" height="40" rx="20" fill="#FEF7C3"/>
<path fill-rule="evenodd" clip-rule="evenodd" d="M13 23.3636L11.355 31L20 26.2947L28.645 31L27 23.3636L34 16.1579L24.6667 14.6364L20 7L15.3333 14.6364L6 16.1579L13 23.3636ZM14.5113 17.021C14.641 16.9892 14.7774 16.9957 14.9033 17.0396C14.9889 17.0682 15.0677 17.1133 15.135 17.1722C15.2023 17.2311 15.2569 17.3025 15.2954 17.3823L16.4581 20.7951L17.6275 17.3823C17.7037 17.2241 17.8413 17.1019 18.0098 17.0426C18.1784 16.9833 18.3643 16.9916 18.5266 17.0659C18.6888 17.1403 18.8141 17.2744 18.8749 17.4388C18.9358 17.6032 18.9272 17.7844 18.851 17.9427L17.0665 22.6211C17.0011 22.7592 16.8889 22.8709 16.7487 22.9375C16.5865 23.0118 16.4006 23.0202 16.232 22.9609C16.0634 22.9015 15.9259 22.7793 15.8497 22.6211L14.0651 17.9427C14.0079 17.8248 13.9877 17.6931 14.0072 17.5641C14.0268 17.4351 14.0851 17.3147 14.1748 17.218C14.2645 17.1213 14.3816 17.0528 14.5113 17.021ZM19.8841 17.1931C20.0109 17.0695 20.1828 17 20.3621 17C20.5414 17 20.7133 17.0695 20.8401 17.1931C20.9669 17.3167 21.0381 17.4844 21.0381 17.6592V22.3376C21.0381 22.5125 20.9669 22.6802 20.8401 22.8038C20.7133 22.9274 20.5414 22.9969 20.3621 22.9969C20.1828 22.9969 20.0109 22.9274 19.8841 22.8038C19.7574 22.6802 19.6861 22.5125 19.6861 22.3376V17.6592C19.6861 17.4844 19.7574 17.3167 19.8841 17.1931ZM22.399 17.1931C22.5258 17.0695 22.6977 17 22.877 17H24.1681C24.654 17 25.1199 17.1882 25.4635 17.5232C25.807 17.8583 26 18.3127 26 18.7865C26 19.2603 25.807 19.7147 25.4635 20.0497C25.1199 20.3847 24.654 20.573 24.1681 20.573H23.553V22.3376C23.553 22.5125 23.4818 22.6802 23.355 22.8038C23.2282 22.9274 23.0563 22.9969 22.877 22.9969C22.6977 22.9969 22.5258 22.9274 22.399 22.8038C22.2722 22.6802 22.201 22.5125 22.201 22.3376V17.6592C22.201 17.4844 22.2722 17.3167 22.399 17.1931ZM24.1681 18.3184H23.553V19.2545H24.1681C24.2954 19.2545 24.4175 19.2052 24.5075 19.1174C24.5975 19.0297 24.6481 18.9106 24.6481 18.7865C24.6481 18.6623 24.5975 18.5433 24.5075 18.4555C24.4175 18.3677 24.2954 18.3184 24.1681 18.3184Z" fill="#EAAA08"/>
</svg>
