<svg width="40" height="40" viewBox="0 0 40 40" fill="none" xmlns="http://www.w3.org/2000/svg">
<rect width="40" height="40" rx="20" fill="#D1E9FF"/>
<path fill-rule="evenodd" clip-rule="evenodd" d="M22.6257 11C22.6257 11.6962 22.3494 12.3638 21.8577 12.8561C21.366 13.3483 20.6992 13.6249 20.0038 13.6249C19.3085 13.6249 18.6416 13.3483 18.1499 12.8561C17.6582 12.3638 17.382 11.6962 17.382 11H16.9775C16.8481 10.9995 16.7212 11.0369 16.6127 11.1076L12.0393 13.4324C11.9005 13.521 11.7996 13.6583 11.7565 13.8174L10.0228 19.5939C9.99955 19.6808 9.99402 19.7714 10.0065 19.8604C10.019 19.9495 10.0492 20.0351 10.0953 20.1122C10.1415 20.1894 10.2027 20.2564 10.2752 20.3094C10.3478 20.3624 10.4303 20.4003 10.5177 20.4207L13.6599 21.1428H14V26.3937C14.0034 26.9665 14.2125 27.5162 14.5845 27.9304C14.9566 28.3446 15.4634 28.5918 16.0013 28.6216C17.2807 28.8682 18.578 28.9948 19.8783 29H20.1191C21.4202 28.995 22.7184 28.8683 23.9987 28.6216C24.5366 28.5918 25.0434 28.3446 25.4155 27.9304C25.7875 27.5162 25.9966 26.9665 26 26.3937V21.1428H26.342L29.4843 20.4207C29.5717 20.4003 29.6541 20.3624 29.7265 20.3094C29.799 20.2564 29.86 20.1892 29.9059 20.1121C29.9519 20.0349 29.9818 19.9492 29.9939 19.8602C30.006 19.7711 30.0001 19.6806 29.9764 19.5939L28.2455 13.8174C28.2004 13.6593 28.1 13.5226 27.9627 13.4324L23.3893 11.1076C23.2796 11.0371 23.152 10.9998 23.0216 11L22.6257 11Z" fill="#0BA5EC"/>
</svg>
