<svg width="40" height="40" viewBox="0 0 40 40" fill="none" xmlns="http://www.w3.org/2000/svg">
<rect width="40" height="40" rx="20" fill="#FEE4E2"/>
<path fill-rule="evenodd" clip-rule="evenodd" d="M13 10C13.5523 10 14 10.4477 14 11V16C14 16.7403 14.4022 17.3866 15 17.7324V11C15 10.4477 15.4477 10 16 10C16.5523 10 17 10.4477 17 11V17.7324C17.5978 17.3866 18 16.7403 18 16V11C18 10.4477 18.4477 10 19 10C19.5523 10 20 10.4477 20 11V16C20 17.8638 18.7252 19.4299 17 19.874V29C17 29.5523 16.5523 30 16 30C15.4477 30 15 29.5523 15 29V19.874C13.2748 19.4299 12 17.8638 12 16V11C12 10.4477 12.4477 10 13 10ZM22 11C22 10.4477 22.4477 10 23 10C25.7614 10 28 12.2386 28 15V17C28 19.419 26.2822 21.4367 24 21.9V29C24 29.5523 23.5523 30 23 30C22.4477 30 22 29.5523 22 29V11ZM24 19.8293C25.1652 19.4175 26 18.3062 26 17V15C26 13.6938 25.1652 12.5825 24 12.1707V19.8293Z" fill="#F04438"/>
</svg>
