<svg width="58" height="58" viewBox="0 0 58 58" fill="none" xmlns="http://www.w3.org/2000/svg">
<path d="M54 29C54 32.283 53.3534 35.5339 52.097 38.5671C50.8406 41.6002 48.9991 44.3562 46.6777 46.6777C44.3562 48.9991 41.6002 50.8406 38.5671 52.097C35.5339 53.3534 32.283 54 29 54C25.7169 54 22.466 53.3534 19.4329 52.097C16.3998 50.8406 13.6438 48.9991 11.3223 46.6777C9.00086 44.3562 7.15938 41.6002 5.90301 38.5671C4.64664 35.5339 4 32.283 4 29C4 25.7169 4.64665 22.466 5.90302 19.4329C7.15938 16.3998 9.00087 13.6438 11.3223 11.3223C13.6438 9.00086 16.3998 7.15937 19.4329 5.90301C22.4661 4.64664 25.717 4 29 4C32.2831 4 35.534 4.64665 38.5671 5.90302C41.6002 7.15939 44.3562 9.00087 46.6777 11.3223C48.9991 13.6438 50.8406 16.3998 52.097 19.4329C53.3534 22.4661 54 25.717 54 29L54 29Z" stroke="url(#paint0_angular_1196_144)" stroke-width="8" stroke-linecap="round" stroke-linejoin="round" stroke-dasharray="0.1 8"/>
<defs>
<radialGradient id="paint0_angular_1196_144" cx="0" cy="0" r="1" gradientUnits="userSpaceOnUse" gradientTransform="translate(29 29) rotate(169.077) scale(25.0223)">
<stop stop-color="#7F56D9"/>
<stop offset="1" stop-color="#7F56D9" stop-opacity="0"/>
</radialGradient>
</defs>
</svg>
